<?xml version="1.0" encoding="utf-8" standalone="no"?>
<!DOCTYPE svg PUBLIC "-//W3C//DTD SVG 1.1//EN"
  "http://www.w3.org/Graphics/SVG/1.1/DTD/svg11.dtd">
<svg height="280.963594pt" version="1.1" viewBox="0 0 392.025469 280.963594" width="392.025469pt" xmlns="http://www.w3.org/2000/svg" xmlns:xlink="http://www.w3.org/1999/xlink">
 <metadata>
  <rdf:RDF xmlns:cc="http://creativecommons.org/ns#" xmlns:dc="http://purl.org/dc/elements/1.1/" xmlns:rdf="http://www.w3.org/1999/02/22-rdf-syntax-ns#">
   <cc:Work>
    <dc:type rdf:resource="http://purl.org/dc/dcmitype/StillImage"/>
    <dc:date>2021-08-23T11:16:32.899241</dc:date>
    <dc:format>image/svg+xml</dc:format>
    <dc:creator>
     <cc:Agent>
      <dc:title>Matplotlib v3.4.2, https://matplotlib.org/</dc:title>
     </cc:Agent>
    </dc:creator>
   </cc:Work>
  </rdf:RDF>
 </metadata>
 <defs>
  <style type="text/css">*{stroke-linecap:butt;stroke-linejoin:round;}</style>
 </defs>
 <g id="figure_1">
  <g id="patch_1">
   <path d="M 0 280.963594 
L 392.025469 280.963594 
L 392.025469 0 
L 0 0 
z
" style="fill:#ffffff;"/>
  </g>
  <g id="axes_1">
   <g id="patch_2">
    <path d="M 50.025469 239.229375 
L 384.825469 239.229375 
L 384.825469 21.789375 
L 50.025469 21.789375 
z
" style="fill:#ffffff;"/>
   </g>
   <g id="matplotlib.axis_1">
    <g id="xtick_1">
     <g id="line2d_1">
      <defs>
       <path d="M 0 0 
L 0 6 
" id="mc5d52eae83" style="stroke:#262626;stroke-width:1.25;"/>
      </defs>
      <g>
       <use style="fill:#262626;stroke:#262626;stroke-width:1.25;" x="67.274139" xlink:href="#mc5d52eae83" y="239.229375"/>
      </g>
     </g>
     <g id="text_1">
      <!-- 20000 -->
      <g style="fill:#262626;" transform="translate(51.981561 256.602969)scale(0.11 -0.11)">
       <defs>
        <path d="M 3222 541 
L 3222 0 
L 194 0 
Q 188 203 259 391 
Q 375 700 629 1000 
Q 884 1300 1366 1694 
Q 2113 2306 2375 2664 
Q 2638 3022 2638 3341 
Q 2638 3675 2398 3904 
Q 2159 4134 1775 4134 
Q 1369 4134 1125 3890 
Q 881 3647 878 3216 
L 300 3275 
Q 359 3922 746 4261 
Q 1134 4600 1788 4600 
Q 2447 4600 2831 4234 
Q 3216 3869 3216 3328 
Q 3216 3053 3103 2787 
Q 2991 2522 2730 2228 
Q 2469 1934 1863 1422 
Q 1356 997 1212 845 
Q 1069 694 975 541 
L 3222 541 
z
" id="ArialMT-32" transform="scale(0.015625)"/>
        <path d="M 266 2259 
Q 266 3072 433 3567 
Q 600 4063 929 4331 
Q 1259 4600 1759 4600 
Q 2128 4600 2406 4451 
Q 2684 4303 2865 4023 
Q 3047 3744 3150 3342 
Q 3253 2941 3253 2259 
Q 3253 1453 3087 958 
Q 2922 463 2592 192 
Q 2263 -78 1759 -78 
Q 1097 -78 719 397 
Q 266 969 266 2259 
z
M 844 2259 
Q 844 1131 1108 757 
Q 1372 384 1759 384 
Q 2147 384 2411 759 
Q 2675 1134 2675 2259 
Q 2675 3391 2411 3762 
Q 2147 4134 1753 4134 
Q 1366 4134 1134 3806 
Q 844 3388 844 2259 
z
" id="ArialMT-30" transform="scale(0.015625)"/>
       </defs>
       <use xlink:href="#ArialMT-32"/>
       <use x="55.615234" xlink:href="#ArialMT-30"/>
       <use x="111.230469" xlink:href="#ArialMT-30"/>
       <use x="166.845703" xlink:href="#ArialMT-30"/>
       <use x="222.460938" xlink:href="#ArialMT-30"/>
      </g>
     </g>
    </g>
    <g id="xtick_2">
     <g id="line2d_2">
      <g>
       <use style="fill:#262626;stroke:#262626;stroke-width:1.25;" x="122.450463" xlink:href="#mc5d52eae83" y="239.229375"/>
      </g>
     </g>
     <g id="text_2">
      <!-- 40000 -->
      <g style="fill:#262626;" transform="translate(107.157885 256.602969)scale(0.11 -0.11)">
       <defs>
        <path d="M 2069 0 
L 2069 1097 
L 81 1097 
L 81 1613 
L 2172 4581 
L 2631 4581 
L 2631 1613 
L 3250 1613 
L 3250 1097 
L 2631 1097 
L 2631 0 
L 2069 0 
z
M 2069 1613 
L 2069 3678 
L 634 1613 
L 2069 1613 
z
" id="ArialMT-34" transform="scale(0.015625)"/>
       </defs>
       <use xlink:href="#ArialMT-34"/>
       <use x="55.615234" xlink:href="#ArialMT-30"/>
       <use x="111.230469" xlink:href="#ArialMT-30"/>
       <use x="166.845703" xlink:href="#ArialMT-30"/>
       <use x="222.460938" xlink:href="#ArialMT-30"/>
      </g>
     </g>
    </g>
    <g id="xtick_3">
     <g id="line2d_3">
      <g>
       <use style="fill:#262626;stroke:#262626;stroke-width:1.25;" x="177.626787" xlink:href="#mc5d52eae83" y="239.229375"/>
      </g>
     </g>
     <g id="text_3">
      <!-- 60000 -->
      <g style="fill:#262626;" transform="translate(162.334208 256.602969)scale(0.11 -0.11)">
       <defs>
        <path d="M 3184 3459 
L 2625 3416 
Q 2550 3747 2413 3897 
Q 2184 4138 1850 4138 
Q 1581 4138 1378 3988 
Q 1113 3794 959 3422 
Q 806 3050 800 2363 
Q 1003 2672 1297 2822 
Q 1591 2972 1913 2972 
Q 2475 2972 2870 2558 
Q 3266 2144 3266 1488 
Q 3266 1056 3080 686 
Q 2894 316 2569 119 
Q 2244 -78 1831 -78 
Q 1128 -78 684 439 
Q 241 956 241 2144 
Q 241 3472 731 4075 
Q 1159 4600 1884 4600 
Q 2425 4600 2770 4297 
Q 3116 3994 3184 3459 
z
M 888 1484 
Q 888 1194 1011 928 
Q 1134 663 1356 523 
Q 1578 384 1822 384 
Q 2178 384 2434 671 
Q 2691 959 2691 1453 
Q 2691 1928 2437 2201 
Q 2184 2475 1800 2475 
Q 1419 2475 1153 2201 
Q 888 1928 888 1484 
z
" id="ArialMT-36" transform="scale(0.015625)"/>
       </defs>
       <use xlink:href="#ArialMT-36"/>
       <use x="55.615234" xlink:href="#ArialMT-30"/>
       <use x="111.230469" xlink:href="#ArialMT-30"/>
       <use x="166.845703" xlink:href="#ArialMT-30"/>
       <use x="222.460938" xlink:href="#ArialMT-30"/>
      </g>
     </g>
    </g>
    <g id="xtick_4">
     <g id="line2d_4">
      <g>
       <use style="fill:#262626;stroke:#262626;stroke-width:1.25;" x="232.80311" xlink:href="#mc5d52eae83" y="239.229375"/>
      </g>
     </g>
     <g id="text_4">
      <!-- 80000 -->
      <g style="fill:#262626;" transform="translate(217.510532 256.602969)scale(0.11 -0.11)">
       <defs>
        <path d="M 1131 2484 
Q 781 2613 612 2850 
Q 444 3088 444 3419 
Q 444 3919 803 4259 
Q 1163 4600 1759 4600 
Q 2359 4600 2725 4251 
Q 3091 3903 3091 3403 
Q 3091 3084 2923 2848 
Q 2756 2613 2416 2484 
Q 2838 2347 3058 2040 
Q 3278 1734 3278 1309 
Q 3278 722 2862 322 
Q 2447 -78 1769 -78 
Q 1091 -78 675 323 
Q 259 725 259 1325 
Q 259 1772 486 2073 
Q 713 2375 1131 2484 
z
M 1019 3438 
Q 1019 3113 1228 2906 
Q 1438 2700 1772 2700 
Q 2097 2700 2305 2904 
Q 2513 3109 2513 3406 
Q 2513 3716 2298 3927 
Q 2084 4138 1766 4138 
Q 1444 4138 1231 3931 
Q 1019 3725 1019 3438 
z
M 838 1322 
Q 838 1081 952 856 
Q 1066 631 1291 507 
Q 1516 384 1775 384 
Q 2178 384 2440 643 
Q 2703 903 2703 1303 
Q 2703 1709 2433 1975 
Q 2163 2241 1756 2241 
Q 1359 2241 1098 1978 
Q 838 1716 838 1322 
z
" id="ArialMT-38" transform="scale(0.015625)"/>
       </defs>
       <use xlink:href="#ArialMT-38"/>
       <use x="55.615234" xlink:href="#ArialMT-30"/>
       <use x="111.230469" xlink:href="#ArialMT-30"/>
       <use x="166.845703" xlink:href="#ArialMT-30"/>
       <use x="222.460938" xlink:href="#ArialMT-30"/>
      </g>
     </g>
    </g>
    <g id="xtick_5">
     <g id="line2d_5">
      <g>
       <use style="fill:#262626;stroke:#262626;stroke-width:1.25;" x="287.979434" xlink:href="#mc5d52eae83" y="239.229375"/>
      </g>
     </g>
     <g id="text_5">
      <!-- 100000 -->
      <g style="fill:#262626;" transform="translate(269.62834 256.602969)scale(0.11 -0.11)">
       <defs>
        <path d="M 2384 0 
L 1822 0 
L 1822 3584 
Q 1619 3391 1289 3197 
Q 959 3003 697 2906 
L 697 3450 
Q 1169 3672 1522 3987 
Q 1875 4303 2022 4600 
L 2384 4600 
L 2384 0 
z
" id="ArialMT-31" transform="scale(0.015625)"/>
       </defs>
       <use xlink:href="#ArialMT-31"/>
       <use x="55.615234" xlink:href="#ArialMT-30"/>
       <use x="111.230469" xlink:href="#ArialMT-30"/>
       <use x="166.845703" xlink:href="#ArialMT-30"/>
       <use x="222.460938" xlink:href="#ArialMT-30"/>
       <use x="278.076172" xlink:href="#ArialMT-30"/>
      </g>
     </g>
    </g>
    <g id="xtick_6">
     <g id="line2d_6">
      <g>
       <use style="fill:#262626;stroke:#262626;stroke-width:1.25;" x="343.155757" xlink:href="#mc5d52eae83" y="239.229375"/>
      </g>
     </g>
     <g id="text_6">
      <!-- 120000 -->
      <g style="fill:#262626;" transform="translate(324.804664 256.602969)scale(0.11 -0.11)">
       <use xlink:href="#ArialMT-31"/>
       <use x="55.615234" xlink:href="#ArialMT-32"/>
       <use x="111.230469" xlink:href="#ArialMT-30"/>
       <use x="166.845703" xlink:href="#ArialMT-30"/>
       <use x="222.460938" xlink:href="#ArialMT-30"/>
       <use x="278.076172" xlink:href="#ArialMT-30"/>
      </g>
     </g>
    </g>
    <g id="text_7">
     <!-- Median household income -->
     <g style="fill:#262626;" transform="translate(147.384844 271.378594)scale(0.12 -0.12)">
      <defs>
       <path d="M 475 0 
L 475 4581 
L 1388 4581 
L 2472 1338 
Q 2622 884 2691 659 
Q 2769 909 2934 1394 
L 4031 4581 
L 4847 4581 
L 4847 0 
L 4263 0 
L 4263 3834 
L 2931 0 
L 2384 0 
L 1059 3900 
L 1059 0 
L 475 0 
z
" id="ArialMT-4d" transform="scale(0.015625)"/>
       <path d="M 2694 1069 
L 3275 997 
Q 3138 488 2766 206 
Q 2394 -75 1816 -75 
Q 1088 -75 661 373 
Q 234 822 234 1631 
Q 234 2469 665 2931 
Q 1097 3394 1784 3394 
Q 2450 3394 2872 2941 
Q 3294 2488 3294 1666 
Q 3294 1616 3291 1516 
L 816 1516 
Q 847 969 1125 678 
Q 1403 388 1819 388 
Q 2128 388 2347 550 
Q 2566 713 2694 1069 
z
M 847 1978 
L 2700 1978 
Q 2663 2397 2488 2606 
Q 2219 2931 1791 2931 
Q 1403 2931 1139 2672 
Q 875 2413 847 1978 
z
" id="ArialMT-65" transform="scale(0.015625)"/>
       <path d="M 2575 0 
L 2575 419 
Q 2259 -75 1647 -75 
Q 1250 -75 917 144 
Q 584 363 401 755 
Q 219 1147 219 1656 
Q 219 2153 384 2558 
Q 550 2963 881 3178 
Q 1213 3394 1622 3394 
Q 1922 3394 2156 3267 
Q 2391 3141 2538 2938 
L 2538 4581 
L 3097 4581 
L 3097 0 
L 2575 0 
z
M 797 1656 
Q 797 1019 1065 703 
Q 1334 388 1700 388 
Q 2069 388 2326 689 
Q 2584 991 2584 1609 
Q 2584 2291 2321 2609 
Q 2059 2928 1675 2928 
Q 1300 2928 1048 2622 
Q 797 2316 797 1656 
z
" id="ArialMT-64" transform="scale(0.015625)"/>
       <path d="M 425 3934 
L 425 4581 
L 988 4581 
L 988 3934 
L 425 3934 
z
M 425 0 
L 425 3319 
L 988 3319 
L 988 0 
L 425 0 
z
" id="ArialMT-69" transform="scale(0.015625)"/>
       <path d="M 2588 409 
Q 2275 144 1986 34 
Q 1697 -75 1366 -75 
Q 819 -75 525 192 
Q 231 459 231 875 
Q 231 1119 342 1320 
Q 453 1522 633 1644 
Q 813 1766 1038 1828 
Q 1203 1872 1538 1913 
Q 2219 1994 2541 2106 
Q 2544 2222 2544 2253 
Q 2544 2597 2384 2738 
Q 2169 2928 1744 2928 
Q 1347 2928 1158 2789 
Q 969 2650 878 2297 
L 328 2372 
Q 403 2725 575 2942 
Q 747 3159 1072 3276 
Q 1397 3394 1825 3394 
Q 2250 3394 2515 3294 
Q 2781 3194 2906 3042 
Q 3031 2891 3081 2659 
Q 3109 2516 3109 2141 
L 3109 1391 
Q 3109 606 3145 398 
Q 3181 191 3288 0 
L 2700 0 
Q 2613 175 2588 409 
z
M 2541 1666 
Q 2234 1541 1622 1453 
Q 1275 1403 1131 1340 
Q 988 1278 909 1158 
Q 831 1038 831 891 
Q 831 666 1001 516 
Q 1172 366 1500 366 
Q 1825 366 2078 508 
Q 2331 650 2450 897 
Q 2541 1088 2541 1459 
L 2541 1666 
z
" id="ArialMT-61" transform="scale(0.015625)"/>
       <path d="M 422 0 
L 422 3319 
L 928 3319 
L 928 2847 
Q 1294 3394 1984 3394 
Q 2284 3394 2536 3286 
Q 2788 3178 2913 3003 
Q 3038 2828 3088 2588 
Q 3119 2431 3119 2041 
L 3119 0 
L 2556 0 
L 2556 2019 
Q 2556 2363 2490 2533 
Q 2425 2703 2258 2804 
Q 2091 2906 1866 2906 
Q 1506 2906 1245 2678 
Q 984 2450 984 1813 
L 984 0 
L 422 0 
z
" id="ArialMT-6e" transform="scale(0.015625)"/>
       <path id="ArialMT-20" transform="scale(0.015625)"/>
       <path d="M 422 0 
L 422 4581 
L 984 4581 
L 984 2938 
Q 1378 3394 1978 3394 
Q 2347 3394 2619 3248 
Q 2891 3103 3008 2847 
Q 3125 2591 3125 2103 
L 3125 0 
L 2563 0 
L 2563 2103 
Q 2563 2525 2380 2717 
Q 2197 2909 1863 2909 
Q 1613 2909 1392 2779 
Q 1172 2650 1078 2428 
Q 984 2206 984 1816 
L 984 0 
L 422 0 
z
" id="ArialMT-68" transform="scale(0.015625)"/>
       <path d="M 213 1659 
Q 213 2581 725 3025 
Q 1153 3394 1769 3394 
Q 2453 3394 2887 2945 
Q 3322 2497 3322 1706 
Q 3322 1066 3130 698 
Q 2938 331 2570 128 
Q 2203 -75 1769 -75 
Q 1072 -75 642 372 
Q 213 819 213 1659 
z
M 791 1659 
Q 791 1022 1069 705 
Q 1347 388 1769 388 
Q 2188 388 2466 706 
Q 2744 1025 2744 1678 
Q 2744 2294 2464 2611 
Q 2184 2928 1769 2928 
Q 1347 2928 1069 2612 
Q 791 2297 791 1659 
z
" id="ArialMT-6f" transform="scale(0.015625)"/>
       <path d="M 2597 0 
L 2597 488 
Q 2209 -75 1544 -75 
Q 1250 -75 995 37 
Q 741 150 617 320 
Q 494 491 444 738 
Q 409 903 409 1263 
L 409 3319 
L 972 3319 
L 972 1478 
Q 972 1038 1006 884 
Q 1059 663 1231 536 
Q 1403 409 1656 409 
Q 1909 409 2131 539 
Q 2353 669 2445 892 
Q 2538 1116 2538 1541 
L 2538 3319 
L 3100 3319 
L 3100 0 
L 2597 0 
z
" id="ArialMT-75" transform="scale(0.015625)"/>
       <path d="M 197 991 
L 753 1078 
Q 800 744 1014 566 
Q 1228 388 1613 388 
Q 2000 388 2187 545 
Q 2375 703 2375 916 
Q 2375 1106 2209 1216 
Q 2094 1291 1634 1406 
Q 1016 1563 777 1677 
Q 538 1791 414 1992 
Q 291 2194 291 2438 
Q 291 2659 392 2848 
Q 494 3038 669 3163 
Q 800 3259 1026 3326 
Q 1253 3394 1513 3394 
Q 1903 3394 2198 3281 
Q 2494 3169 2634 2976 
Q 2775 2784 2828 2463 
L 2278 2388 
Q 2241 2644 2061 2787 
Q 1881 2931 1553 2931 
Q 1166 2931 1000 2803 
Q 834 2675 834 2503 
Q 834 2394 903 2306 
Q 972 2216 1119 2156 
Q 1203 2125 1616 2013 
Q 2213 1853 2448 1751 
Q 2684 1650 2818 1456 
Q 2953 1263 2953 975 
Q 2953 694 2789 445 
Q 2625 197 2315 61 
Q 2006 -75 1616 -75 
Q 969 -75 630 194 
Q 291 463 197 991 
z
" id="ArialMT-73" transform="scale(0.015625)"/>
       <path d="M 409 0 
L 409 4581 
L 972 4581 
L 972 0 
L 409 0 
z
" id="ArialMT-6c" transform="scale(0.015625)"/>
       <path d="M 2588 1216 
L 3141 1144 
Q 3050 572 2676 248 
Q 2303 -75 1759 -75 
Q 1078 -75 664 370 
Q 250 816 250 1647 
Q 250 2184 428 2587 
Q 606 2991 970 3192 
Q 1334 3394 1763 3394 
Q 2303 3394 2647 3120 
Q 2991 2847 3088 2344 
L 2541 2259 
Q 2463 2594 2264 2762 
Q 2066 2931 1784 2931 
Q 1359 2931 1093 2626 
Q 828 2322 828 1663 
Q 828 994 1084 691 
Q 1341 388 1753 388 
Q 2084 388 2306 591 
Q 2528 794 2588 1216 
z
" id="ArialMT-63" transform="scale(0.015625)"/>
       <path d="M 422 0 
L 422 3319 
L 925 3319 
L 925 2853 
Q 1081 3097 1340 3245 
Q 1600 3394 1931 3394 
Q 2300 3394 2536 3241 
Q 2772 3088 2869 2813 
Q 3263 3394 3894 3394 
Q 4388 3394 4653 3120 
Q 4919 2847 4919 2278 
L 4919 0 
L 4359 0 
L 4359 2091 
Q 4359 2428 4304 2576 
Q 4250 2725 4106 2815 
Q 3963 2906 3769 2906 
Q 3419 2906 3187 2673 
Q 2956 2441 2956 1928 
L 2956 0 
L 2394 0 
L 2394 2156 
Q 2394 2531 2256 2718 
Q 2119 2906 1806 2906 
Q 1569 2906 1367 2781 
Q 1166 2656 1075 2415 
Q 984 2175 984 1722 
L 984 0 
L 422 0 
z
" id="ArialMT-6d" transform="scale(0.015625)"/>
      </defs>
      <use xlink:href="#ArialMT-4d"/>
      <use x="83.300781" xlink:href="#ArialMT-65"/>
      <use x="138.916016" xlink:href="#ArialMT-64"/>
      <use x="194.53125" xlink:href="#ArialMT-69"/>
      <use x="216.748047" xlink:href="#ArialMT-61"/>
      <use x="272.363281" xlink:href="#ArialMT-6e"/>
      <use x="327.978516" xlink:href="#ArialMT-20"/>
      <use x="355.761719" xlink:href="#ArialMT-68"/>
      <use x="411.376953" xlink:href="#ArialMT-6f"/>
      <use x="466.992188" xlink:href="#ArialMT-75"/>
      <use x="522.607422" xlink:href="#ArialMT-73"/>
      <use x="572.607422" xlink:href="#ArialMT-65"/>
      <use x="628.222656" xlink:href="#ArialMT-68"/>
      <use x="683.837891" xlink:href="#ArialMT-6f"/>
      <use x="739.453125" xlink:href="#ArialMT-6c"/>
      <use x="761.669922" xlink:href="#ArialMT-64"/>
      <use x="817.285156" xlink:href="#ArialMT-20"/>
      <use x="845.068359" xlink:href="#ArialMT-69"/>
      <use x="867.285156" xlink:href="#ArialMT-6e"/>
      <use x="922.900391" xlink:href="#ArialMT-63"/>
      <use x="972.900391" xlink:href="#ArialMT-6f"/>
      <use x="1028.515625" xlink:href="#ArialMT-6d"/>
      <use x="1111.816406" xlink:href="#ArialMT-65"/>
     </g>
    </g>
   </g>
   <g id="matplotlib.axis_2">
    <g id="ytick_1">
     <g id="line2d_7">
      <defs>
       <path d="M 0 0 
L -6 0 
" id="m58d6de855b" style="stroke:#262626;stroke-width:1.25;"/>
      </defs>
      <g>
       <use style="fill:#262626;stroke:#262626;stroke-width:1.25;" x="50.025469" xlink:href="#m58d6de855b" y="239.229375"/>
      </g>
     </g>
     <g id="text_8">
      <!-- 0 -->
      <g style="fill:#262626;" transform="translate(34.408438 243.166172)scale(0.11 -0.11)">
       <use xlink:href="#ArialMT-30"/>
      </g>
     </g>
    </g>
    <g id="ytick_2">
     <g id="line2d_8">
      <g>
       <use style="fill:#262626;stroke:#262626;stroke-width:1.25;" x="50.025469" xlink:href="#m58d6de855b" y="209.645702"/>
      </g>
     </g>
     <g id="text_9">
      <!-- 20 -->
      <g style="fill:#262626;" transform="translate(28.291406 213.582498)scale(0.11 -0.11)">
       <use xlink:href="#ArialMT-32"/>
       <use x="55.615234" xlink:href="#ArialMT-30"/>
      </g>
     </g>
    </g>
    <g id="ytick_3">
     <g id="line2d_9">
      <g>
       <use style="fill:#262626;stroke:#262626;stroke-width:1.25;" x="50.025469" xlink:href="#m58d6de855b" y="180.062028"/>
      </g>
     </g>
     <g id="text_10">
      <!-- 40 -->
      <g style="fill:#262626;" transform="translate(28.291406 183.998825)scale(0.11 -0.11)">
       <use xlink:href="#ArialMT-34"/>
       <use x="55.615234" xlink:href="#ArialMT-30"/>
      </g>
     </g>
    </g>
    <g id="ytick_4">
     <g id="line2d_10">
      <g>
       <use style="fill:#262626;stroke:#262626;stroke-width:1.25;" x="50.025469" xlink:href="#m58d6de855b" y="150.478355"/>
      </g>
     </g>
     <g id="text_11">
      <!-- 60 -->
      <g style="fill:#262626;" transform="translate(28.291406 154.415151)scale(0.11 -0.11)">
       <use xlink:href="#ArialMT-36"/>
       <use x="55.615234" xlink:href="#ArialMT-30"/>
      </g>
     </g>
    </g>
    <g id="ytick_5">
     <g id="line2d_11">
      <g>
       <use style="fill:#262626;stroke:#262626;stroke-width:1.25;" x="50.025469" xlink:href="#m58d6de855b" y="120.894681"/>
      </g>
     </g>
     <g id="text_12">
      <!-- 80 -->
      <g style="fill:#262626;" transform="translate(28.291406 124.831478)scale(0.11 -0.11)">
       <use xlink:href="#ArialMT-38"/>
       <use x="55.615234" xlink:href="#ArialMT-30"/>
      </g>
     </g>
    </g>
    <g id="ytick_6">
     <g id="line2d_12">
      <g>
       <use style="fill:#262626;stroke:#262626;stroke-width:1.25;" x="50.025469" xlink:href="#m58d6de855b" y="91.311008"/>
      </g>
     </g>
     <g id="text_13">
      <!-- 100 -->
      <g style="fill:#262626;" transform="translate(22.174375 95.247805)scale(0.11 -0.11)">
       <use xlink:href="#ArialMT-31"/>
       <use x="55.615234" xlink:href="#ArialMT-30"/>
       <use x="111.230469" xlink:href="#ArialMT-30"/>
      </g>
     </g>
    </g>
    <g id="ytick_7">
     <g id="line2d_13">
      <g>
       <use style="fill:#262626;stroke:#262626;stroke-width:1.25;" x="50.025469" xlink:href="#m58d6de855b" y="61.727334"/>
      </g>
     </g>
     <g id="text_14">
      <!-- 120 -->
      <g style="fill:#262626;" transform="translate(22.174375 65.664131)scale(0.11 -0.11)">
       <use xlink:href="#ArialMT-31"/>
       <use x="55.615234" xlink:href="#ArialMT-32"/>
       <use x="111.230469" xlink:href="#ArialMT-30"/>
      </g>
     </g>
    </g>
    <g id="ytick_8">
     <g id="line2d_14">
      <g>
       <use style="fill:#262626;stroke:#262626;stroke-width:1.25;" x="50.025469" xlink:href="#m58d6de855b" y="32.143661"/>
      </g>
     </g>
     <g id="text_15">
      <!-- 140 -->
      <g style="fill:#262626;" transform="translate(22.174375 36.080458)scale(0.11 -0.11)">
       <use xlink:href="#ArialMT-31"/>
       <use x="55.615234" xlink:href="#ArialMT-34"/>
       <use x="111.230469" xlink:href="#ArialMT-30"/>
      </g>
     </g>
    </g>
    <g id="text_16">
     <!-- Count -->
     <g style="fill:#262626;" transform="translate(15.789375 146.519063)rotate(-90)scale(0.12 -0.12)">
      <defs>
       <path d="M 3763 1606 
L 4369 1453 
Q 4178 706 3683 314 
Q 3188 -78 2472 -78 
Q 1731 -78 1267 223 
Q 803 525 561 1097 
Q 319 1669 319 2325 
Q 319 3041 592 3573 
Q 866 4106 1370 4382 
Q 1875 4659 2481 4659 
Q 3169 4659 3637 4309 
Q 4106 3959 4291 3325 
L 3694 3184 
Q 3534 3684 3231 3912 
Q 2928 4141 2469 4141 
Q 1941 4141 1586 3887 
Q 1231 3634 1087 3207 
Q 944 2781 944 2328 
Q 944 1744 1114 1308 
Q 1284 872 1643 656 
Q 2003 441 2422 441 
Q 2931 441 3284 734 
Q 3638 1028 3763 1606 
z
" id="ArialMT-43" transform="scale(0.015625)"/>
       <path d="M 1650 503 
L 1731 6 
Q 1494 -44 1306 -44 
Q 1000 -44 831 53 
Q 663 150 594 308 
Q 525 466 525 972 
L 525 2881 
L 113 2881 
L 113 3319 
L 525 3319 
L 525 4141 
L 1084 4478 
L 1084 3319 
L 1650 3319 
L 1650 2881 
L 1084 2881 
L 1084 941 
Q 1084 700 1114 631 
Q 1144 563 1211 522 
Q 1278 481 1403 481 
Q 1497 481 1650 503 
z
" id="ArialMT-74" transform="scale(0.015625)"/>
      </defs>
      <use xlink:href="#ArialMT-43"/>
      <use x="72.216797" xlink:href="#ArialMT-6f"/>
      <use x="127.832031" xlink:href="#ArialMT-75"/>
      <use x="183.447266" xlink:href="#ArialMT-6e"/>
      <use x="239.0625" xlink:href="#ArialMT-74"/>
     </g>
    </g>
   </g>
   <g id="patch_3">
    <path clip-path="url(#p02c3e9ca66)" d="M 65.243651 239.229375 
L 70.678716 239.229375 
L 70.678716 233.31264 
L 65.243651 233.31264 
z
" style="fill:#ef8733;fill-opacity:0.5;stroke:#ffffff;stroke-linejoin:miter;stroke-width:0.543506;"/>
   </g>
   <g id="patch_4">
    <path clip-path="url(#p02c3e9ca66)" d="M 70.678716 239.229375 
L 76.11378 239.229375 
L 76.11378 228.875089 
L 70.678716 228.875089 
z
" style="fill:#ef8733;fill-opacity:0.5;stroke:#ffffff;stroke-linejoin:miter;stroke-width:0.543506;"/>
   </g>
   <g id="patch_5">
    <path clip-path="url(#p02c3e9ca66)" d="M 76.11378 239.229375 
L 81.548845 239.229375 
L 81.548845 224.437538 
L 76.11378 224.437538 
z
" style="fill:#ef8733;fill-opacity:0.5;stroke:#ffffff;stroke-linejoin:miter;stroke-width:0.543506;"/>
   </g>
   <g id="patch_6">
    <path clip-path="url(#p02c3e9ca66)" d="M 81.548845 239.229375 
L 86.98391 239.229375 
L 86.98391 206.687334 
L 81.548845 206.687334 
z
" style="fill:#ef8733;fill-opacity:0.5;stroke:#ffffff;stroke-linejoin:miter;stroke-width:0.543506;"/>
   </g>
   <g id="patch_7">
    <path clip-path="url(#p02c3e9ca66)" d="M 86.98391 239.229375 
L 92.418975 239.229375 
L 92.418975 218.520804 
L 86.98391 218.520804 
z
" style="fill:#ef8733;fill-opacity:0.5;stroke:#ffffff;stroke-linejoin:miter;stroke-width:0.543506;"/>
   </g>
   <g id="patch_8">
    <path clip-path="url(#p02c3e9ca66)" d="M 92.418975 239.229375 
L 97.85404 239.229375 
L 97.85404 171.186926 
L 92.418975 171.186926 
z
" style="fill:#ef8733;fill-opacity:0.5;stroke:#ffffff;stroke-linejoin:miter;stroke-width:0.543506;"/>
   </g>
   <g id="patch_9">
    <path clip-path="url(#p02c3e9ca66)" d="M 97.85404 239.229375 
L 103.289105 239.229375 
L 103.289105 153.436722 
L 97.85404 153.436722 
z
" style="fill:#ef8733;fill-opacity:0.5;stroke:#ffffff;stroke-linejoin:miter;stroke-width:0.543506;"/>
   </g>
   <g id="patch_10">
    <path clip-path="url(#p02c3e9ca66)" d="M 103.289105 239.229375 
L 108.72417 239.229375 
L 108.72417 141.603253 
L 103.289105 141.603253 
z
" style="fill:#ef8733;fill-opacity:0.5;stroke:#ffffff;stroke-linejoin:miter;stroke-width:0.543506;"/>
   </g>
   <g id="patch_11">
    <path clip-path="url(#p02c3e9ca66)" d="M 108.72417 239.229375 
L 114.159235 239.229375 
L 114.159235 86.873457 
L 108.72417 86.873457 
z
" style="fill:#ef8733;fill-opacity:0.5;stroke:#ffffff;stroke-linejoin:miter;stroke-width:0.543506;"/>
   </g>
   <g id="patch_12">
    <path clip-path="url(#p02c3e9ca66)" d="M 114.159235 239.229375 
L 119.5943 239.229375 
L 119.5943 67.644069 
L 114.159235 67.644069 
z
" style="fill:#ef8733;fill-opacity:0.5;stroke:#ffffff;stroke-linejoin:miter;stroke-width:0.543506;"/>
   </g>
   <g id="patch_13">
    <path clip-path="url(#p02c3e9ca66)" d="M 119.5943 239.229375 
L 125.029365 239.229375 
L 125.029365 94.269375 
L 119.5943 94.269375 
z
" style="fill:#ef8733;fill-opacity:0.5;stroke:#ffffff;stroke-linejoin:miter;stroke-width:0.543506;"/>
   </g>
   <g id="patch_14">
    <path clip-path="url(#p02c3e9ca66)" d="M 125.029365 239.229375 
L 130.46443 239.229375 
L 130.46443 32.143661 
L 125.029365 32.143661 
z
" style="fill:#ef8733;fill-opacity:0.5;stroke:#ffffff;stroke-linejoin:miter;stroke-width:0.543506;"/>
   </g>
   <g id="patch_15">
    <path clip-path="url(#p02c3e9ca66)" d="M 130.46443 239.229375 
L 135.899495 239.229375 
L 135.899495 67.644069 
L 130.46443 67.644069 
z
" style="fill:#ef8733;fill-opacity:0.5;stroke:#ffffff;stroke-linejoin:miter;stroke-width:0.543506;"/>
   </g>
   <g id="patch_16">
    <path clip-path="url(#p02c3e9ca66)" d="M 135.899495 239.229375 
L 141.33456 239.229375 
L 141.33456 48.414681 
L 135.899495 48.414681 
z
" style="fill:#ef8733;fill-opacity:0.5;stroke:#ffffff;stroke-linejoin:miter;stroke-width:0.543506;"/>
   </g>
   <g id="patch_17">
    <path clip-path="url(#p02c3e9ca66)" d="M 141.33456 239.229375 
L 146.769625 239.229375 
L 146.769625 58.768967 
L 141.33456 58.768967 
z
" style="fill:#ef8733;fill-opacity:0.5;stroke:#ffffff;stroke-linejoin:miter;stroke-width:0.543506;"/>
   </g>
   <g id="patch_18">
    <path clip-path="url(#p02c3e9ca66)" d="M 146.769625 239.229375 
L 152.20469 239.229375 
L 152.20469 61.727334 
L 146.769625 61.727334 
z
" style="fill:#ef8733;fill-opacity:0.5;stroke:#ffffff;stroke-linejoin:miter;stroke-width:0.543506;"/>
   </g>
   <g id="patch_19">
    <path clip-path="url(#p02c3e9ca66)" d="M 152.20469 239.229375 
L 157.639754 239.229375 
L 157.639754 54.331416 
L 152.20469 54.331416 
z
" style="fill:#ef8733;fill-opacity:0.5;stroke:#ffffff;stroke-linejoin:miter;stroke-width:0.543506;"/>
   </g>
   <g id="patch_20">
    <path clip-path="url(#p02c3e9ca66)" d="M 157.639754 239.229375 
L 163.074819 239.229375 
L 163.074819 129.769783 
L 157.639754 129.769783 
z
" style="fill:#ef8733;fill-opacity:0.5;stroke:#ffffff;stroke-linejoin:miter;stroke-width:0.543506;"/>
   </g>
   <g id="patch_21">
    <path clip-path="url(#p02c3e9ca66)" d="M 163.074819 239.229375 
L 168.509884 239.229375 
L 168.509884 141.603253 
L 163.074819 141.603253 
z
" style="fill:#ef8733;fill-opacity:0.5;stroke:#ffffff;stroke-linejoin:miter;stroke-width:0.543506;"/>
   </g>
   <g id="patch_22">
    <path clip-path="url(#p02c3e9ca66)" d="M 168.509884 239.229375 
L 173.944949 239.229375 
L 173.944949 175.624477 
L 168.509884 175.624477 
z
" style="fill:#ef8733;fill-opacity:0.5;stroke:#ffffff;stroke-linejoin:miter;stroke-width:0.543506;"/>
   </g>
   <g id="patch_23">
    <path clip-path="url(#p02c3e9ca66)" d="M 173.944949 239.229375 
L 179.380014 239.229375 
L 179.380014 200.770599 
L 173.944949 200.770599 
z
" style="fill:#ef8733;fill-opacity:0.5;stroke:#ffffff;stroke-linejoin:miter;stroke-width:0.543506;"/>
   </g>
   <g id="patch_24">
    <path clip-path="url(#p02c3e9ca66)" d="M 179.380014 239.229375 
L 184.815079 239.229375 
L 184.815079 203.728967 
L 179.380014 203.728967 
z
" style="fill:#ef8733;fill-opacity:0.5;stroke:#ffffff;stroke-linejoin:miter;stroke-width:0.543506;"/>
   </g>
   <g id="patch_25">
    <path clip-path="url(#p02c3e9ca66)" d="M 184.815079 239.229375 
L 190.250144 239.229375 
L 190.250144 215.562436 
L 184.815079 215.562436 
z
" style="fill:#ef8733;fill-opacity:0.5;stroke:#ffffff;stroke-linejoin:miter;stroke-width:0.543506;"/>
   </g>
   <g id="patch_26">
    <path clip-path="url(#p02c3e9ca66)" d="M 190.250144 239.229375 
L 195.685209 239.229375 
L 195.685209 222.958355 
L 190.250144 222.958355 
z
" style="fill:#ef8733;fill-opacity:0.5;stroke:#ffffff;stroke-linejoin:miter;stroke-width:0.543506;"/>
   </g>
   <g id="patch_27">
    <path clip-path="url(#p02c3e9ca66)" d="M 195.685209 239.229375 
L 201.120274 239.229375 
L 201.120274 233.31264 
L 195.685209 233.31264 
z
" style="fill:#ef8733;fill-opacity:0.5;stroke:#ffffff;stroke-linejoin:miter;stroke-width:0.543506;"/>
   </g>
   <g id="patch_28">
    <path clip-path="url(#p02c3e9ca66)" d="M 201.120274 239.229375 
L 206.555339 239.229375 
L 206.555339 228.875089 
L 201.120274 228.875089 
z
" style="fill:#ef8733;fill-opacity:0.5;stroke:#ffffff;stroke-linejoin:miter;stroke-width:0.543506;"/>
   </g>
   <g id="patch_29">
    <path clip-path="url(#p02c3e9ca66)" d="M 206.555339 239.229375 
L 211.990404 239.229375 
L 211.990404 233.31264 
L 206.555339 233.31264 
z
" style="fill:#ef8733;fill-opacity:0.5;stroke:#ffffff;stroke-linejoin:miter;stroke-width:0.543506;"/>
   </g>
   <g id="patch_30">
    <path clip-path="url(#p02c3e9ca66)" d="M 211.990404 239.229375 
L 217.425469 239.229375 
L 217.425469 237.750191 
L 211.990404 237.750191 
z
" style="fill:#ef8733;fill-opacity:0.5;stroke:#ffffff;stroke-linejoin:miter;stroke-width:0.543506;"/>
   </g>
   <g id="patch_31">
    <path clip-path="url(#p02c3e9ca66)" d="M 217.425469 239.229375 
L 222.860534 239.229375 
L 222.860534 233.31264 
L 217.425469 233.31264 
z
" style="fill:#ef8733;fill-opacity:0.5;stroke:#ffffff;stroke-linejoin:miter;stroke-width:0.543506;"/>
   </g>
   <g id="patch_32">
    <path clip-path="url(#p02c3e9ca66)" d="M 222.860534 239.229375 
L 228.295599 239.229375 
L 228.295599 236.271008 
L 222.860534 236.271008 
z
" style="fill:#ef8733;fill-opacity:0.5;stroke:#ffffff;stroke-linejoin:miter;stroke-width:0.543506;"/>
   </g>
   <g id="patch_33">
    <path clip-path="url(#p02c3e9ca66)" d="M 228.295599 239.229375 
L 233.730664 239.229375 
L 233.730664 234.791824 
L 228.295599 234.791824 
z
" style="fill:#ef8733;fill-opacity:0.5;stroke:#ffffff;stroke-linejoin:miter;stroke-width:0.543506;"/>
   </g>
   <g id="patch_34">
    <path clip-path="url(#p02c3e9ca66)" d="M 233.730664 239.229375 
L 239.165728 239.229375 
L 239.165728 233.31264 
L 233.730664 233.31264 
z
" style="fill:#ef8733;fill-opacity:0.5;stroke:#ffffff;stroke-linejoin:miter;stroke-width:0.543506;"/>
   </g>
   <g id="patch_35">
    <path clip-path="url(#p02c3e9ca66)" d="M 239.165728 239.229375 
L 244.600793 239.229375 
L 244.600793 236.271008 
L 239.165728 236.271008 
z
" style="fill:#ef8733;fill-opacity:0.5;stroke:#ffffff;stroke-linejoin:miter;stroke-width:0.543506;"/>
   </g>
   <g id="patch_36">
    <path clip-path="url(#p02c3e9ca66)" d="M 244.600793 239.229375 
L 250.035858 239.229375 
L 250.035858 233.31264 
L 244.600793 233.31264 
z
" style="fill:#ef8733;fill-opacity:0.5;stroke:#ffffff;stroke-linejoin:miter;stroke-width:0.543506;"/>
   </g>
   <g id="patch_37">
    <path clip-path="url(#p02c3e9ca66)" d="M 250.035858 239.229375 
L 255.470923 239.229375 
L 255.470923 239.229375 
L 250.035858 239.229375 
z
" style="fill:#ef8733;fill-opacity:0.5;stroke:#ffffff;stroke-linejoin:miter;stroke-width:0.543506;"/>
   </g>
   <g id="patch_38">
    <path clip-path="url(#p02c3e9ca66)" d="M 255.470923 239.229375 
L 260.905988 239.229375 
L 260.905988 236.271008 
L 255.470923 236.271008 
z
" style="fill:#ef8733;fill-opacity:0.5;stroke:#ffffff;stroke-linejoin:miter;stroke-width:0.543506;"/>
   </g>
   <g id="patch_39">
    <path clip-path="url(#p02c3e9ca66)" d="M 260.905988 239.229375 
L 266.341053 239.229375 
L 266.341053 236.271008 
L 260.905988 236.271008 
z
" style="fill:#ef8733;fill-opacity:0.5;stroke:#ffffff;stroke-linejoin:miter;stroke-width:0.543506;"/>
   </g>
   <g id="patch_40">
    <path clip-path="url(#p02c3e9ca66)" d="M 266.341053 239.229375 
L 271.776118 239.229375 
L 271.776118 237.750191 
L 266.341053 237.750191 
z
" style="fill:#ef8733;fill-opacity:0.5;stroke:#ffffff;stroke-linejoin:miter;stroke-width:0.543506;"/>
   </g>
   <g id="patch_41">
    <path clip-path="url(#p02c3e9ca66)" d="M 271.776118 239.229375 
L 277.211183 239.229375 
L 277.211183 239.229375 
L 271.776118 239.229375 
z
" style="fill:#ef8733;fill-opacity:0.5;stroke:#ffffff;stroke-linejoin:miter;stroke-width:0.543506;"/>
   </g>
   <g id="patch_42">
    <path clip-path="url(#p02c3e9ca66)" d="M 277.211183 239.229375 
L 282.646248 239.229375 
L 282.646248 239.229375 
L 277.211183 239.229375 
z
" style="fill:#ef8733;fill-opacity:0.5;stroke:#ffffff;stroke-linejoin:miter;stroke-width:0.543506;"/>
   </g>
   <g id="patch_43">
    <path clip-path="url(#p02c3e9ca66)" d="M 282.646248 239.229375 
L 288.081313 239.229375 
L 288.081313 237.750191 
L 282.646248 237.750191 
z
" style="fill:#ef8733;fill-opacity:0.5;stroke:#ffffff;stroke-linejoin:miter;stroke-width:0.543506;"/>
   </g>
   <g id="patch_44">
    <path clip-path="url(#p02c3e9ca66)" d="M 288.081313 239.229375 
L 293.516378 239.229375 
L 293.516378 239.229375 
L 288.081313 239.229375 
z
" style="fill:#ef8733;fill-opacity:0.5;stroke:#ffffff;stroke-linejoin:miter;stroke-width:0.543506;"/>
   </g>
   <g id="patch_45">
    <path clip-path="url(#p02c3e9ca66)" d="M 293.516378 239.229375 
L 298.951443 239.229375 
L 298.951443 239.229375 
L 293.516378 239.229375 
z
" style="fill:#ef8733;fill-opacity:0.5;stroke:#ffffff;stroke-linejoin:miter;stroke-width:0.543506;"/>
   </g>
   <g id="patch_46">
    <path clip-path="url(#p02c3e9ca66)" d="M 298.951443 239.229375 
L 304.386508 239.229375 
L 304.386508 239.229375 
L 298.951443 239.229375 
z
" style="fill:#ef8733;fill-opacity:0.5;stroke:#ffffff;stroke-linejoin:miter;stroke-width:0.543506;"/>
   </g>
   <g id="patch_47">
    <path clip-path="url(#p02c3e9ca66)" d="M 304.386508 239.229375 
L 309.821573 239.229375 
L 309.821573 239.229375 
L 304.386508 239.229375 
z
" style="fill:#ef8733;fill-opacity:0.5;stroke:#ffffff;stroke-linejoin:miter;stroke-width:0.543506;"/>
   </g>
   <g id="patch_48">
    <path clip-path="url(#p02c3e9ca66)" d="M 309.821573 239.229375 
L 315.256638 239.229375 
L 315.256638 239.229375 
L 309.821573 239.229375 
z
" style="fill:#ef8733;fill-opacity:0.5;stroke:#ffffff;stroke-linejoin:miter;stroke-width:0.543506;"/>
   </g>
   <g id="patch_49">
    <path clip-path="url(#p02c3e9ca66)" d="M 315.256638 239.229375 
L 320.691703 239.229375 
L 320.691703 237.750191 
L 315.256638 237.750191 
z
" style="fill:#ef8733;fill-opacity:0.5;stroke:#ffffff;stroke-linejoin:miter;stroke-width:0.543506;"/>
   </g>
   <g id="patch_50">
    <path clip-path="url(#p02c3e9ca66)" d="M 320.691703 239.229375 
L 326.126767 239.229375 
L 326.126767 239.229375 
L 320.691703 239.229375 
z
" style="fill:#ef8733;fill-opacity:0.5;stroke:#ffffff;stroke-linejoin:miter;stroke-width:0.543506;"/>
   </g>
   <g id="patch_51">
    <path clip-path="url(#p02c3e9ca66)" d="M 326.126767 239.229375 
L 331.561832 239.229375 
L 331.561832 239.229375 
L 326.126767 239.229375 
z
" style="fill:#ef8733;fill-opacity:0.5;stroke:#ffffff;stroke-linejoin:miter;stroke-width:0.543506;"/>
   </g>
   <g id="patch_52">
    <path clip-path="url(#p02c3e9ca66)" d="M 331.561832 239.229375 
L 336.996897 239.229375 
L 336.996897 239.229375 
L 331.561832 239.229375 
z
" style="fill:#ef8733;fill-opacity:0.5;stroke:#ffffff;stroke-linejoin:miter;stroke-width:0.543506;"/>
   </g>
   <g id="patch_53">
    <path clip-path="url(#p02c3e9ca66)" d="M 336.996897 239.229375 
L 342.431962 239.229375 
L 342.431962 239.229375 
L 336.996897 239.229375 
z
" style="fill:#ef8733;fill-opacity:0.5;stroke:#ffffff;stroke-linejoin:miter;stroke-width:0.543506;"/>
   </g>
   <g id="patch_54">
    <path clip-path="url(#p02c3e9ca66)" d="M 342.431962 239.229375 
L 347.867027 239.229375 
L 347.867027 239.229375 
L 342.431962 239.229375 
z
" style="fill:#ef8733;fill-opacity:0.5;stroke:#ffffff;stroke-linejoin:miter;stroke-width:0.543506;"/>
   </g>
   <g id="patch_55">
    <path clip-path="url(#p02c3e9ca66)" d="M 347.867027 239.229375 
L 353.302092 239.229375 
L 353.302092 239.229375 
L 347.867027 239.229375 
z
" style="fill:#ef8733;fill-opacity:0.5;stroke:#ffffff;stroke-linejoin:miter;stroke-width:0.543506;"/>
   </g>
   <g id="patch_56">
    <path clip-path="url(#p02c3e9ca66)" d="M 353.302092 239.229375 
L 358.737157 239.229375 
L 358.737157 239.229375 
L 353.302092 239.229375 
z
" style="fill:#ef8733;fill-opacity:0.5;stroke:#ffffff;stroke-linejoin:miter;stroke-width:0.543506;"/>
   </g>
   <g id="patch_57">
    <path clip-path="url(#p02c3e9ca66)" d="M 358.737157 239.229375 
L 364.172222 239.229375 
L 364.172222 239.229375 
L 358.737157 239.229375 
z
" style="fill:#ef8733;fill-opacity:0.5;stroke:#ffffff;stroke-linejoin:miter;stroke-width:0.543506;"/>
   </g>
   <g id="patch_58">
    <path clip-path="url(#p02c3e9ca66)" d="M 364.172222 239.229375 
L 369.607287 239.229375 
L 369.607287 239.229375 
L 364.172222 239.229375 
z
" style="fill:#ef8733;fill-opacity:0.5;stroke:#ffffff;stroke-linejoin:miter;stroke-width:0.543506;"/>
   </g>
   <g id="patch_59">
    <path clip-path="url(#p02c3e9ca66)" d="M 65.243651 239.229375 
L 70.678716 239.229375 
L 70.678716 239.229375 
L 65.243651 239.229375 
z
" style="fill:#3f83f4;fill-opacity:0.5;stroke:#ffffff;stroke-linejoin:miter;stroke-width:0.543506;"/>
   </g>
   <g id="patch_60">
    <path clip-path="url(#p02c3e9ca66)" d="M 70.678716 239.229375 
L 76.11378 239.229375 
L 76.11378 237.750191 
L 70.678716 237.750191 
z
" style="fill:#3f83f4;fill-opacity:0.5;stroke:#ffffff;stroke-linejoin:miter;stroke-width:0.543506;"/>
   </g>
   <g id="patch_61">
    <path clip-path="url(#p02c3e9ca66)" d="M 76.11378 239.229375 
L 81.548845 239.229375 
L 81.548845 239.229375 
L 76.11378 239.229375 
z
" style="fill:#3f83f4;fill-opacity:0.5;stroke:#ffffff;stroke-linejoin:miter;stroke-width:0.543506;"/>
   </g>
   <g id="patch_62">
    <path clip-path="url(#p02c3e9ca66)" d="M 81.548845 239.229375 
L 86.98391 239.229375 
L 86.98391 234.791824 
L 81.548845 234.791824 
z
" style="fill:#3f83f4;fill-opacity:0.5;stroke:#ffffff;stroke-linejoin:miter;stroke-width:0.543506;"/>
   </g>
   <g id="patch_63">
    <path clip-path="url(#p02c3e9ca66)" d="M 86.98391 239.229375 
L 92.418975 239.229375 
L 92.418975 236.271008 
L 86.98391 236.271008 
z
" style="fill:#3f83f4;fill-opacity:0.5;stroke:#ffffff;stroke-linejoin:miter;stroke-width:0.543506;"/>
   </g>
   <g id="patch_64">
    <path clip-path="url(#p02c3e9ca66)" d="M 92.418975 239.229375 
L 97.85404 239.229375 
L 97.85404 239.229375 
L 92.418975 239.229375 
z
" style="fill:#3f83f4;fill-opacity:0.5;stroke:#ffffff;stroke-linejoin:miter;stroke-width:0.543506;"/>
   </g>
   <g id="patch_65">
    <path clip-path="url(#p02c3e9ca66)" d="M 97.85404 239.229375 
L 103.289105 239.229375 
L 103.289105 215.562436 
L 97.85404 215.562436 
z
" style="fill:#3f83f4;fill-opacity:0.5;stroke:#ffffff;stroke-linejoin:miter;stroke-width:0.543506;"/>
   </g>
   <g id="patch_66">
    <path clip-path="url(#p02c3e9ca66)" d="M 103.289105 239.229375 
L 108.72417 239.229375 
L 108.72417 211.124885 
L 103.289105 211.124885 
z
" style="fill:#3f83f4;fill-opacity:0.5;stroke:#ffffff;stroke-linejoin:miter;stroke-width:0.543506;"/>
   </g>
   <g id="patch_67">
    <path clip-path="url(#p02c3e9ca66)" d="M 108.72417 239.229375 
L 114.159235 239.229375 
L 114.159235 174.145293 
L 108.72417 174.145293 
z
" style="fill:#3f83f4;fill-opacity:0.5;stroke:#ffffff;stroke-linejoin:miter;stroke-width:0.543506;"/>
   </g>
   <g id="patch_68">
    <path clip-path="url(#p02c3e9ca66)" d="M 114.159235 239.229375 
L 119.5943 239.229375 
L 119.5943 169.707742 
L 114.159235 169.707742 
z
" style="fill:#3f83f4;fill-opacity:0.5;stroke:#ffffff;stroke-linejoin:miter;stroke-width:0.543506;"/>
   </g>
   <g id="patch_69">
    <path clip-path="url(#p02c3e9ca66)" d="M 119.5943 239.229375 
L 125.029365 239.229375 
L 125.029365 119.415497 
L 119.5943 119.415497 
z
" style="fill:#3f83f4;fill-opacity:0.5;stroke:#ffffff;stroke-linejoin:miter;stroke-width:0.543506;"/>
   </g>
   <g id="patch_70">
    <path clip-path="url(#p02c3e9ca66)" d="M 125.029365 239.229375 
L 130.46443 239.229375 
L 130.46443 104.623661 
L 125.029365 104.623661 
z
" style="fill:#3f83f4;fill-opacity:0.5;stroke:#ffffff;stroke-linejoin:miter;stroke-width:0.543506;"/>
   </g>
   <g id="patch_71">
    <path clip-path="url(#p02c3e9ca66)" d="M 130.46443 239.229375 
L 135.899495 239.229375 
L 135.899495 100.18611 
L 130.46443 100.18611 
z
" style="fill:#3f83f4;fill-opacity:0.5;stroke:#ffffff;stroke-linejoin:miter;stroke-width:0.543506;"/>
   </g>
   <g id="patch_72">
    <path clip-path="url(#p02c3e9ca66)" d="M 135.899495 239.229375 
L 141.33456 239.229375 
L 141.33456 69.123253 
L 135.899495 69.123253 
z
" style="fill:#3f83f4;fill-opacity:0.5;stroke:#ffffff;stroke-linejoin:miter;stroke-width:0.543506;"/>
   </g>
   <g id="patch_73">
    <path clip-path="url(#p02c3e9ca66)" d="M 141.33456 239.229375 
L 146.769625 239.229375 
L 146.769625 104.623661 
L 141.33456 104.623661 
z
" style="fill:#3f83f4;fill-opacity:0.5;stroke:#ffffff;stroke-linejoin:miter;stroke-width:0.543506;"/>
   </g>
   <g id="patch_74">
    <path clip-path="url(#p02c3e9ca66)" d="M 146.769625 239.229375 
L 152.20469 239.229375 
L 152.20469 89.831824 
L 146.769625 89.831824 
z
" style="fill:#3f83f4;fill-opacity:0.5;stroke:#ffffff;stroke-linejoin:miter;stroke-width:0.543506;"/>
   </g>
   <g id="patch_75">
    <path clip-path="url(#p02c3e9ca66)" d="M 152.20469 239.229375 
L 157.639754 239.229375 
L 157.639754 91.311008 
L 152.20469 91.311008 
z
" style="fill:#3f83f4;fill-opacity:0.5;stroke:#ffffff;stroke-linejoin:miter;stroke-width:0.543506;"/>
   </g>
   <g id="patch_76">
    <path clip-path="url(#p02c3e9ca66)" d="M 157.639754 239.229375 
L 163.074819 239.229375 
L 163.074819 79.477538 
L 157.639754 79.477538 
z
" style="fill:#3f83f4;fill-opacity:0.5;stroke:#ffffff;stroke-linejoin:miter;stroke-width:0.543506;"/>
   </g>
   <g id="patch_77">
    <path clip-path="url(#p02c3e9ca66)" d="M 163.074819 239.229375 
L 168.509884 239.229375 
L 168.509884 128.290599 
L 163.074819 128.290599 
z
" style="fill:#3f83f4;fill-opacity:0.5;stroke:#ffffff;stroke-linejoin:miter;stroke-width:0.543506;"/>
   </g>
   <g id="patch_78">
    <path clip-path="url(#p02c3e9ca66)" d="M 168.509884 239.229375 
L 173.944949 239.229375 
L 173.944949 122.373865 
L 168.509884 122.373865 
z
" style="fill:#3f83f4;fill-opacity:0.5;stroke:#ffffff;stroke-linejoin:miter;stroke-width:0.543506;"/>
   </g>
   <g id="patch_79">
    <path clip-path="url(#p02c3e9ca66)" d="M 173.944949 239.229375 
L 179.380014 239.229375 
L 179.380014 123.853048 
L 173.944949 123.853048 
z
" style="fill:#3f83f4;fill-opacity:0.5;stroke:#ffffff;stroke-linejoin:miter;stroke-width:0.543506;"/>
   </g>
   <g id="patch_80">
    <path clip-path="url(#p02c3e9ca66)" d="M 179.380014 239.229375 
L 184.815079 239.229375 
L 184.815079 137.165702 
L 179.380014 137.165702 
z
" style="fill:#3f83f4;fill-opacity:0.5;stroke:#ffffff;stroke-linejoin:miter;stroke-width:0.543506;"/>
   </g>
   <g id="patch_81">
    <path clip-path="url(#p02c3e9ca66)" d="M 184.815079 239.229375 
L 190.250144 239.229375 
L 190.250144 172.66611 
L 184.815079 172.66611 
z
" style="fill:#3f83f4;fill-opacity:0.5;stroke:#ffffff;stroke-linejoin:miter;stroke-width:0.543506;"/>
   </g>
   <g id="patch_82">
    <path clip-path="url(#p02c3e9ca66)" d="M 190.250144 239.229375 
L 195.685209 239.229375 
L 195.685209 171.186926 
L 190.250144 171.186926 
z
" style="fill:#3f83f4;fill-opacity:0.5;stroke:#ffffff;stroke-linejoin:miter;stroke-width:0.543506;"/>
   </g>
   <g id="patch_83">
    <path clip-path="url(#p02c3e9ca66)" d="M 195.685209 239.229375 
L 201.120274 239.229375 
L 201.120274 188.93713 
L 195.685209 188.93713 
z
" style="fill:#3f83f4;fill-opacity:0.5;stroke:#ffffff;stroke-linejoin:miter;stroke-width:0.543506;"/>
   </g>
   <g id="patch_84">
    <path clip-path="url(#p02c3e9ca66)" d="M 201.120274 239.229375 
L 206.555339 239.229375 
L 206.555339 218.520804 
L 201.120274 218.520804 
z
" style="fill:#3f83f4;fill-opacity:0.5;stroke:#ffffff;stroke-linejoin:miter;stroke-width:0.543506;"/>
   </g>
   <g id="patch_85">
    <path clip-path="url(#p02c3e9ca66)" d="M 206.555339 239.229375 
L 211.990404 239.229375 
L 211.990404 199.291416 
L 206.555339 199.291416 
z
" style="fill:#3f83f4;fill-opacity:0.5;stroke:#ffffff;stroke-linejoin:miter;stroke-width:0.543506;"/>
   </g>
   <g id="patch_86">
    <path clip-path="url(#p02c3e9ca66)" d="M 211.990404 239.229375 
L 217.425469 239.229375 
L 217.425469 206.687334 
L 211.990404 206.687334 
z
" style="fill:#3f83f4;fill-opacity:0.5;stroke:#ffffff;stroke-linejoin:miter;stroke-width:0.543506;"/>
   </g>
   <g id="patch_87">
    <path clip-path="url(#p02c3e9ca66)" d="M 217.425469 239.229375 
L 222.860534 239.229375 
L 222.860534 214.083253 
L 217.425469 214.083253 
z
" style="fill:#3f83f4;fill-opacity:0.5;stroke:#ffffff;stroke-linejoin:miter;stroke-width:0.543506;"/>
   </g>
   <g id="patch_88">
    <path clip-path="url(#p02c3e9ca66)" d="M 222.860534 239.229375 
L 228.295599 239.229375 
L 228.295599 215.562436 
L 222.860534 215.562436 
z
" style="fill:#3f83f4;fill-opacity:0.5;stroke:#ffffff;stroke-linejoin:miter;stroke-width:0.543506;"/>
   </g>
   <g id="patch_89">
    <path clip-path="url(#p02c3e9ca66)" d="M 228.295599 239.229375 
L 233.730664 239.229375 
L 233.730664 215.562436 
L 228.295599 215.562436 
z
" style="fill:#3f83f4;fill-opacity:0.5;stroke:#ffffff;stroke-linejoin:miter;stroke-width:0.543506;"/>
   </g>
   <g id="patch_90">
    <path clip-path="url(#p02c3e9ca66)" d="M 233.730664 239.229375 
L 239.165728 239.229375 
L 239.165728 212.604069 
L 233.730664 212.604069 
z
" style="fill:#3f83f4;fill-opacity:0.5;stroke:#ffffff;stroke-linejoin:miter;stroke-width:0.543506;"/>
   </g>
   <g id="patch_91">
    <path clip-path="url(#p02c3e9ca66)" d="M 239.165728 239.229375 
L 244.600793 239.229375 
L 244.600793 228.875089 
L 239.165728 228.875089 
z
" style="fill:#3f83f4;fill-opacity:0.5;stroke:#ffffff;stroke-linejoin:miter;stroke-width:0.543506;"/>
   </g>
   <g id="patch_92">
    <path clip-path="url(#p02c3e9ca66)" d="M 244.600793 239.229375 
L 250.035858 239.229375 
L 250.035858 225.916722 
L 244.600793 225.916722 
z
" style="fill:#3f83f4;fill-opacity:0.5;stroke:#ffffff;stroke-linejoin:miter;stroke-width:0.543506;"/>
   </g>
   <g id="patch_93">
    <path clip-path="url(#p02c3e9ca66)" d="M 250.035858 239.229375 
L 255.470923 239.229375 
L 255.470923 234.791824 
L 250.035858 234.791824 
z
" style="fill:#3f83f4;fill-opacity:0.5;stroke:#ffffff;stroke-linejoin:miter;stroke-width:0.543506;"/>
   </g>
   <g id="patch_94">
    <path clip-path="url(#p02c3e9ca66)" d="M 255.470923 239.229375 
L 260.905988 239.229375 
L 260.905988 224.437538 
L 255.470923 224.437538 
z
" style="fill:#3f83f4;fill-opacity:0.5;stroke:#ffffff;stroke-linejoin:miter;stroke-width:0.543506;"/>
   </g>
   <g id="patch_95">
    <path clip-path="url(#p02c3e9ca66)" d="M 260.905988 239.229375 
L 266.341053 239.229375 
L 266.341053 231.833457 
L 260.905988 231.833457 
z
" style="fill:#3f83f4;fill-opacity:0.5;stroke:#ffffff;stroke-linejoin:miter;stroke-width:0.543506;"/>
   </g>
   <g id="patch_96">
    <path clip-path="url(#p02c3e9ca66)" d="M 266.341053 239.229375 
L 271.776118 239.229375 
L 271.776118 224.437538 
L 266.341053 224.437538 
z
" style="fill:#3f83f4;fill-opacity:0.5;stroke:#ffffff;stroke-linejoin:miter;stroke-width:0.543506;"/>
   </g>
   <g id="patch_97">
    <path clip-path="url(#p02c3e9ca66)" d="M 271.776118 239.229375 
L 277.211183 239.229375 
L 277.211183 233.31264 
L 271.776118 233.31264 
z
" style="fill:#3f83f4;fill-opacity:0.5;stroke:#ffffff;stroke-linejoin:miter;stroke-width:0.543506;"/>
   </g>
   <g id="patch_98">
    <path clip-path="url(#p02c3e9ca66)" d="M 277.211183 239.229375 
L 282.646248 239.229375 
L 282.646248 236.271008 
L 277.211183 236.271008 
z
" style="fill:#3f83f4;fill-opacity:0.5;stroke:#ffffff;stroke-linejoin:miter;stroke-width:0.543506;"/>
   </g>
   <g id="patch_99">
    <path clip-path="url(#p02c3e9ca66)" d="M 282.646248 239.229375 
L 288.081313 239.229375 
L 288.081313 239.229375 
L 282.646248 239.229375 
z
" style="fill:#3f83f4;fill-opacity:0.5;stroke:#ffffff;stroke-linejoin:miter;stroke-width:0.543506;"/>
   </g>
   <g id="patch_100">
    <path clip-path="url(#p02c3e9ca66)" d="M 288.081313 239.229375 
L 293.516378 239.229375 
L 293.516378 234.791824 
L 288.081313 234.791824 
z
" style="fill:#3f83f4;fill-opacity:0.5;stroke:#ffffff;stroke-linejoin:miter;stroke-width:0.543506;"/>
   </g>
   <g id="patch_101">
    <path clip-path="url(#p02c3e9ca66)" d="M 293.516378 239.229375 
L 298.951443 239.229375 
L 298.951443 234.791824 
L 293.516378 234.791824 
z
" style="fill:#3f83f4;fill-opacity:0.5;stroke:#ffffff;stroke-linejoin:miter;stroke-width:0.543506;"/>
   </g>
   <g id="patch_102">
    <path clip-path="url(#p02c3e9ca66)" d="M 298.951443 239.229375 
L 304.386508 239.229375 
L 304.386508 234.791824 
L 298.951443 234.791824 
z
" style="fill:#3f83f4;fill-opacity:0.5;stroke:#ffffff;stroke-linejoin:miter;stroke-width:0.543506;"/>
   </g>
   <g id="patch_103">
    <path clip-path="url(#p02c3e9ca66)" d="M 304.386508 239.229375 
L 309.821573 239.229375 
L 309.821573 233.31264 
L 304.386508 233.31264 
z
" style="fill:#3f83f4;fill-opacity:0.5;stroke:#ffffff;stroke-linejoin:miter;stroke-width:0.543506;"/>
   </g>
   <g id="patch_104">
    <path clip-path="url(#p02c3e9ca66)" d="M 309.821573 239.229375 
L 315.256638 239.229375 
L 315.256638 239.229375 
L 309.821573 239.229375 
z
" style="fill:#3f83f4;fill-opacity:0.5;stroke:#ffffff;stroke-linejoin:miter;stroke-width:0.543506;"/>
   </g>
   <g id="patch_105">
    <path clip-path="url(#p02c3e9ca66)" d="M 315.256638 239.229375 
L 320.691703 239.229375 
L 320.691703 236.271008 
L 315.256638 236.271008 
z
" style="fill:#3f83f4;fill-opacity:0.5;stroke:#ffffff;stroke-linejoin:miter;stroke-width:0.543506;"/>
   </g>
   <g id="patch_106">
    <path clip-path="url(#p02c3e9ca66)" d="M 320.691703 239.229375 
L 326.126767 239.229375 
L 326.126767 237.750191 
L 320.691703 237.750191 
z
" style="fill:#3f83f4;fill-opacity:0.5;stroke:#ffffff;stroke-linejoin:miter;stroke-width:0.543506;"/>
   </g>
   <g id="patch_107">
    <path clip-path="url(#p02c3e9ca66)" d="M 326.126767 239.229375 
L 331.561832 239.229375 
L 331.561832 236.271008 
L 326.126767 236.271008 
z
" style="fill:#3f83f4;fill-opacity:0.5;stroke:#ffffff;stroke-linejoin:miter;stroke-width:0.543506;"/>
   </g>
   <g id="patch_108">
    <path clip-path="url(#p02c3e9ca66)" d="M 331.561832 239.229375 
L 336.996897 239.229375 
L 336.996897 237.750191 
L 331.561832 237.750191 
z
" style="fill:#3f83f4;fill-opacity:0.5;stroke:#ffffff;stroke-linejoin:miter;stroke-width:0.543506;"/>
   </g>
   <g id="patch_109">
    <path clip-path="url(#p02c3e9ca66)" d="M 336.996897 239.229375 
L 342.431962 239.229375 
L 342.431962 239.229375 
L 336.996897 239.229375 
z
" style="fill:#3f83f4;fill-opacity:0.5;stroke:#ffffff;stroke-linejoin:miter;stroke-width:0.543506;"/>
   </g>
   <g id="patch_110">
    <path clip-path="url(#p02c3e9ca66)" d="M 342.431962 239.229375 
L 347.867027 239.229375 
L 347.867027 239.229375 
L 342.431962 239.229375 
z
" style="fill:#3f83f4;fill-opacity:0.5;stroke:#ffffff;stroke-linejoin:miter;stroke-width:0.543506;"/>
   </g>
   <g id="patch_111">
    <path clip-path="url(#p02c3e9ca66)" d="M 347.867027 239.229375 
L 353.302092 239.229375 
L 353.302092 239.229375 
L 347.867027 239.229375 
z
" style="fill:#3f83f4;fill-opacity:0.5;stroke:#ffffff;stroke-linejoin:miter;stroke-width:0.543506;"/>
   </g>
   <g id="patch_112">
    <path clip-path="url(#p02c3e9ca66)" d="M 353.302092 239.229375 
L 358.737157 239.229375 
L 358.737157 239.229375 
L 353.302092 239.229375 
z
" style="fill:#3f83f4;fill-opacity:0.5;stroke:#ffffff;stroke-linejoin:miter;stroke-width:0.543506;"/>
   </g>
   <g id="patch_113">
    <path clip-path="url(#p02c3e9ca66)" d="M 358.737157 239.229375 
L 364.172222 239.229375 
L 364.172222 239.229375 
L 358.737157 239.229375 
z
" style="fill:#3f83f4;fill-opacity:0.5;stroke:#ffffff;stroke-linejoin:miter;stroke-width:0.543506;"/>
   </g>
   <g id="patch_114">
    <path clip-path="url(#p02c3e9ca66)" d="M 364.172222 239.229375 
L 369.607287 239.229375 
L 369.607287 237.750191 
L 364.172222 237.750191 
z
" style="fill:#3f83f4;fill-opacity:0.5;stroke:#ffffff;stroke-linejoin:miter;stroke-width:0.543506;"/>
   </g>
   <g id="patch_115">
    <path d="M 50.025469 239.229375 
L 50.025469 21.789375 
" style="fill:none;stroke:#262626;stroke-linecap:square;stroke-linejoin:miter;stroke-width:1.25;"/>
   </g>
   <g id="patch_116">
    <path d="M 50.025469 239.229375 
L 384.825469 239.229375 
" style="fill:none;stroke:#262626;stroke-linecap:square;stroke-linejoin:miter;stroke-width:1.25;"/>
   </g>
   <g id="text_17">
    <!-- Histogram -->
    <g style="fill:#262626;" transform="translate(190.087031 15.789375)scale(0.12 -0.12)">
     <defs>
      <path d="M 513 0 
L 513 4581 
L 1119 4581 
L 1119 2700 
L 3500 2700 
L 3500 4581 
L 4106 4581 
L 4106 0 
L 3500 0 
L 3500 2159 
L 1119 2159 
L 1119 0 
L 513 0 
z
" id="ArialMT-48" transform="scale(0.015625)"/>
      <path d="M 319 -275 
L 866 -356 
Q 900 -609 1056 -725 
Q 1266 -881 1628 -881 
Q 2019 -881 2231 -725 
Q 2444 -569 2519 -288 
Q 2563 -116 2559 434 
Q 2191 0 1641 0 
Q 956 0 581 494 
Q 206 988 206 1678 
Q 206 2153 378 2554 
Q 550 2956 876 3175 
Q 1203 3394 1644 3394 
Q 2231 3394 2613 2919 
L 2613 3319 
L 3131 3319 
L 3131 450 
Q 3131 -325 2973 -648 
Q 2816 -972 2473 -1159 
Q 2131 -1347 1631 -1347 
Q 1038 -1347 672 -1080 
Q 306 -813 319 -275 
z
M 784 1719 
Q 784 1066 1043 766 
Q 1303 466 1694 466 
Q 2081 466 2343 764 
Q 2606 1063 2606 1700 
Q 2606 2309 2336 2618 
Q 2066 2928 1684 2928 
Q 1309 2928 1046 2623 
Q 784 2319 784 1719 
z
" id="ArialMT-67" transform="scale(0.015625)"/>
      <path d="M 416 0 
L 416 3319 
L 922 3319 
L 922 2816 
Q 1116 3169 1280 3281 
Q 1444 3394 1641 3394 
Q 1925 3394 2219 3213 
L 2025 2691 
Q 1819 2813 1613 2813 
Q 1428 2813 1281 2702 
Q 1134 2591 1072 2394 
Q 978 2094 978 1738 
L 978 0 
L 416 0 
z
" id="ArialMT-72" transform="scale(0.015625)"/>
     </defs>
     <use xlink:href="#ArialMT-48"/>
     <use x="72.216797" xlink:href="#ArialMT-69"/>
     <use x="94.433594" xlink:href="#ArialMT-73"/>
     <use x="144.433594" xlink:href="#ArialMT-74"/>
     <use x="172.216797" xlink:href="#ArialMT-6f"/>
     <use x="227.832031" xlink:href="#ArialMT-67"/>
     <use x="283.447266" xlink:href="#ArialMT-72"/>
     <use x="316.748047" xlink:href="#ArialMT-61"/>
     <use x="372.363281" xlink:href="#ArialMT-6d"/>
    </g>
   </g>
   <g id="legend_1">
    <g id="patch_117">
     <path d="M 305.840313 78.581875 
L 377.125469 78.581875 
Q 379.325469 78.581875 379.325469 76.381875 
L 379.325469 29.489375 
Q 379.325469 27.289375 377.125469 27.289375 
L 305.840313 27.289375 
Q 303.640313 27.289375 303.640313 29.489375 
L 303.640313 76.381875 
Q 303.640313 78.581875 305.840313 78.581875 
z
" style="fill:#ffffff;opacity:0.8;stroke:#cccccc;stroke-linejoin:miter;"/>
    </g>
    <g id="text_18">
     <!-- change -->
     <g style="fill:#262626;" transform="translate(321.800078 40.27875)scale(0.12 -0.12)">
      <use xlink:href="#ArialMT-63"/>
      <use x="50" xlink:href="#ArialMT-68"/>
      <use x="105.615234" xlink:href="#ArialMT-61"/>
      <use x="161.230469" xlink:href="#ArialMT-6e"/>
      <use x="216.845703" xlink:href="#ArialMT-67"/>
      <use x="272.460938" xlink:href="#ArialMT-65"/>
     </g>
    </g>
    <g id="patch_118">
     <path d="M 308.040313 56.177969 
L 330.040313 56.177969 
L 330.040313 48.477969 
L 308.040313 48.477969 
z
" style="fill:#3f83f4;fill-opacity:0.5;stroke:#ffffff;stroke-linejoin:miter;"/>
    </g>
    <g id="text_19">
     <!-- gain -->
     <g style="fill:#262626;" transform="translate(338.840313 56.177969)scale(0.11 -0.11)">
      <use xlink:href="#ArialMT-67"/>
      <use x="55.615234" xlink:href="#ArialMT-61"/>
      <use x="111.230469" xlink:href="#ArialMT-69"/>
      <use x="133.447266" xlink:href="#ArialMT-6e"/>
     </g>
    </g>
    <g id="patch_119">
     <path d="M 308.040313 71.866719 
L 330.040313 71.866719 
L 330.040313 64.166719 
L 308.040313 64.166719 
z
" style="fill:#ef8733;fill-opacity:0.5;stroke:#ffffff;stroke-linejoin:miter;"/>
    </g>
    <g id="text_20">
     <!-- no gain -->
     <g style="fill:#262626;" transform="translate(338.840313 71.866719)scale(0.11 -0.11)">
      <use xlink:href="#ArialMT-6e"/>
      <use x="55.615234" xlink:href="#ArialMT-6f"/>
      <use x="111.230469" xlink:href="#ArialMT-20"/>
      <use x="139.013672" xlink:href="#ArialMT-67"/>
      <use x="194.628906" xlink:href="#ArialMT-61"/>
      <use x="250.244141" xlink:href="#ArialMT-69"/>
      <use x="272.460938" xlink:href="#ArialMT-6e"/>
     </g>
    </g>
   </g>
  </g>
 </g>
 <defs>
  <clipPath id="p02c3e9ca66">
   <rect height="217.44" width="334.8" x="50.025469" y="21.789375"/>
  </clipPath>
 </defs>
</svg>
