<?xml version="1.0" encoding="utf-8" standalone="no"?>
<!DOCTYPE svg PUBLIC "-//W3C//DTD SVG 1.1//EN"
  "http://www.w3.org/Graphics/SVG/1.1/DTD/svg11.dtd">
<svg height="320.734219pt" version="1.1" viewBox="0 0 617.985156 320.734219" width="617.985156pt" xmlns="http://www.w3.org/2000/svg" xmlns:xlink="http://www.w3.org/1999/xlink">
 <metadata>
  <rdf:RDF xmlns:cc="http://creativecommons.org/ns#" xmlns:dc="http://purl.org/dc/elements/1.1/" xmlns:rdf="http://www.w3.org/1999/02/22-rdf-syntax-ns#">
   <cc:Work>
    <dc:type rdf:resource="http://purl.org/dc/dcmitype/StillImage"/>
    <dc:date>2021-08-23T11:29:22.066050</dc:date>
    <dc:format>image/svg+xml</dc:format>
    <dc:creator>
     <cc:Agent>
      <dc:title>Matplotlib v3.4.2, https://matplotlib.org/</dc:title>
     </cc:Agent>
    </dc:creator>
   </cc:Work>
  </rdf:RDF>
 </metadata>
 <defs>
  <style type="text/css">*{stroke-linecap:butt;stroke-linejoin:round;}</style>
 </defs>
 <g id="figure_1">
  <g id="patch_1">
   <path d="M 0 320.734219 
L 617.985156 320.734219 
L 617.985156 0 
L 0 0 
z
" style="fill:#ffffff;"/>
  </g>
  <g id="axes_1">
   <g id="patch_2">
    <path d="M 52.785156 279 
L 610.785156 279 
L 610.785156 7.2 
L 52.785156 7.2 
z
" style="fill:#ffffff;"/>
   </g>
   <g id="matplotlib.axis_1">
    <g id="xtick_1">
     <g id="line2d_1">
      <path clip-path="url(#pef78acb7fd)" d="M 81.53294 279 
L 81.53294 7.2 
" style="fill:none;stroke:#cccccc;stroke-linecap:round;"/>
     </g>
     <g id="line2d_2">
      <defs>
       <path d="M 0 0 
L 0 6 
" id="m1dc3c68f1d" style="stroke:#262626;stroke-width:1.25;"/>
      </defs>
      <g>
       <use style="fill:#262626;stroke:#262626;stroke-width:1.25;" x="81.53294" xlink:href="#m1dc3c68f1d" y="279"/>
      </g>
     </g>
     <g id="text_1">
      <!-- 20000 -->
      <g style="fill:#262626;" transform="translate(66.240362 296.373594)scale(0.11 -0.11)">
       <defs>
        <path d="M 3222 541 
L 3222 0 
L 194 0 
Q 188 203 259 391 
Q 375 700 629 1000 
Q 884 1300 1366 1694 
Q 2113 2306 2375 2664 
Q 2638 3022 2638 3341 
Q 2638 3675 2398 3904 
Q 2159 4134 1775 4134 
Q 1369 4134 1125 3890 
Q 881 3647 878 3216 
L 300 3275 
Q 359 3922 746 4261 
Q 1134 4600 1788 4600 
Q 2447 4600 2831 4234 
Q 3216 3869 3216 3328 
Q 3216 3053 3103 2787 
Q 2991 2522 2730 2228 
Q 2469 1934 1863 1422 
Q 1356 997 1212 845 
Q 1069 694 975 541 
L 3222 541 
z
" id="ArialMT-32" transform="scale(0.015625)"/>
        <path d="M 266 2259 
Q 266 3072 433 3567 
Q 600 4063 929 4331 
Q 1259 4600 1759 4600 
Q 2128 4600 2406 4451 
Q 2684 4303 2865 4023 
Q 3047 3744 3150 3342 
Q 3253 2941 3253 2259 
Q 3253 1453 3087 958 
Q 2922 463 2592 192 
Q 2263 -78 1759 -78 
Q 1097 -78 719 397 
Q 266 969 266 2259 
z
M 844 2259 
Q 844 1131 1108 757 
Q 1372 384 1759 384 
Q 2147 384 2411 759 
Q 2675 1134 2675 2259 
Q 2675 3391 2411 3762 
Q 2147 4134 1753 4134 
Q 1366 4134 1134 3806 
Q 844 3388 844 2259 
z
" id="ArialMT-30" transform="scale(0.015625)"/>
       </defs>
       <use xlink:href="#ArialMT-32"/>
       <use x="55.615234" xlink:href="#ArialMT-30"/>
       <use x="111.230469" xlink:href="#ArialMT-30"/>
       <use x="166.845703" xlink:href="#ArialMT-30"/>
       <use x="222.460938" xlink:href="#ArialMT-30"/>
      </g>
     </g>
    </g>
    <g id="xtick_2">
     <g id="line2d_3">
      <path clip-path="url(#pef78acb7fd)" d="M 173.49348 279 
L 173.49348 7.2 
" style="fill:none;stroke:#cccccc;stroke-linecap:round;"/>
     </g>
     <g id="line2d_4">
      <g>
       <use style="fill:#262626;stroke:#262626;stroke-width:1.25;" x="173.49348" xlink:href="#m1dc3c68f1d" y="279"/>
      </g>
     </g>
     <g id="text_2">
      <!-- 40000 -->
      <g style="fill:#262626;" transform="translate(158.200902 296.373594)scale(0.11 -0.11)">
       <defs>
        <path d="M 2069 0 
L 2069 1097 
L 81 1097 
L 81 1613 
L 2172 4581 
L 2631 4581 
L 2631 1613 
L 3250 1613 
L 3250 1097 
L 2631 1097 
L 2631 0 
L 2069 0 
z
M 2069 1613 
L 2069 3678 
L 634 1613 
L 2069 1613 
z
" id="ArialMT-34" transform="scale(0.015625)"/>
       </defs>
       <use xlink:href="#ArialMT-34"/>
       <use x="55.615234" xlink:href="#ArialMT-30"/>
       <use x="111.230469" xlink:href="#ArialMT-30"/>
       <use x="166.845703" xlink:href="#ArialMT-30"/>
       <use x="222.460938" xlink:href="#ArialMT-30"/>
      </g>
     </g>
    </g>
    <g id="xtick_3">
     <g id="line2d_5">
      <path clip-path="url(#pef78acb7fd)" d="M 265.454019 279 
L 265.454019 7.2 
" style="fill:none;stroke:#cccccc;stroke-linecap:round;"/>
     </g>
     <g id="line2d_6">
      <g>
       <use style="fill:#262626;stroke:#262626;stroke-width:1.25;" x="265.454019" xlink:href="#m1dc3c68f1d" y="279"/>
      </g>
     </g>
     <g id="text_3">
      <!-- 60000 -->
      <g style="fill:#262626;" transform="translate(250.161441 296.373594)scale(0.11 -0.11)">
       <defs>
        <path d="M 3184 3459 
L 2625 3416 
Q 2550 3747 2413 3897 
Q 2184 4138 1850 4138 
Q 1581 4138 1378 3988 
Q 1113 3794 959 3422 
Q 806 3050 800 2363 
Q 1003 2672 1297 2822 
Q 1591 2972 1913 2972 
Q 2475 2972 2870 2558 
Q 3266 2144 3266 1488 
Q 3266 1056 3080 686 
Q 2894 316 2569 119 
Q 2244 -78 1831 -78 
Q 1128 -78 684 439 
Q 241 956 241 2144 
Q 241 3472 731 4075 
Q 1159 4600 1884 4600 
Q 2425 4600 2770 4297 
Q 3116 3994 3184 3459 
z
M 888 1484 
Q 888 1194 1011 928 
Q 1134 663 1356 523 
Q 1578 384 1822 384 
Q 2178 384 2434 671 
Q 2691 959 2691 1453 
Q 2691 1928 2437 2201 
Q 2184 2475 1800 2475 
Q 1419 2475 1153 2201 
Q 888 1928 888 1484 
z
" id="ArialMT-36" transform="scale(0.015625)"/>
       </defs>
       <use xlink:href="#ArialMT-36"/>
       <use x="55.615234" xlink:href="#ArialMT-30"/>
       <use x="111.230469" xlink:href="#ArialMT-30"/>
       <use x="166.845703" xlink:href="#ArialMT-30"/>
       <use x="222.460938" xlink:href="#ArialMT-30"/>
      </g>
     </g>
    </g>
    <g id="xtick_4">
     <g id="line2d_7">
      <path clip-path="url(#pef78acb7fd)" d="M 357.414559 279 
L 357.414559 7.2 
" style="fill:none;stroke:#cccccc;stroke-linecap:round;"/>
     </g>
     <g id="line2d_8">
      <g>
       <use style="fill:#262626;stroke:#262626;stroke-width:1.25;" x="357.414559" xlink:href="#m1dc3c68f1d" y="279"/>
      </g>
     </g>
     <g id="text_4">
      <!-- 80000 -->
      <g style="fill:#262626;" transform="translate(342.12198 296.373594)scale(0.11 -0.11)">
       <defs>
        <path d="M 1131 2484 
Q 781 2613 612 2850 
Q 444 3088 444 3419 
Q 444 3919 803 4259 
Q 1163 4600 1759 4600 
Q 2359 4600 2725 4251 
Q 3091 3903 3091 3403 
Q 3091 3084 2923 2848 
Q 2756 2613 2416 2484 
Q 2838 2347 3058 2040 
Q 3278 1734 3278 1309 
Q 3278 722 2862 322 
Q 2447 -78 1769 -78 
Q 1091 -78 675 323 
Q 259 725 259 1325 
Q 259 1772 486 2073 
Q 713 2375 1131 2484 
z
M 1019 3438 
Q 1019 3113 1228 2906 
Q 1438 2700 1772 2700 
Q 2097 2700 2305 2904 
Q 2513 3109 2513 3406 
Q 2513 3716 2298 3927 
Q 2084 4138 1766 4138 
Q 1444 4138 1231 3931 
Q 1019 3725 1019 3438 
z
M 838 1322 
Q 838 1081 952 856 
Q 1066 631 1291 507 
Q 1516 384 1775 384 
Q 2178 384 2440 643 
Q 2703 903 2703 1303 
Q 2703 1709 2433 1975 
Q 2163 2241 1756 2241 
Q 1359 2241 1098 1978 
Q 838 1716 838 1322 
z
" id="ArialMT-38" transform="scale(0.015625)"/>
       </defs>
       <use xlink:href="#ArialMT-38"/>
       <use x="55.615234" xlink:href="#ArialMT-30"/>
       <use x="111.230469" xlink:href="#ArialMT-30"/>
       <use x="166.845703" xlink:href="#ArialMT-30"/>
       <use x="222.460938" xlink:href="#ArialMT-30"/>
      </g>
     </g>
    </g>
    <g id="xtick_5">
     <g id="line2d_9">
      <path clip-path="url(#pef78acb7fd)" d="M 449.375098 279 
L 449.375098 7.2 
" style="fill:none;stroke:#cccccc;stroke-linecap:round;"/>
     </g>
     <g id="line2d_10">
      <g>
       <use style="fill:#262626;stroke:#262626;stroke-width:1.25;" x="449.375098" xlink:href="#m1dc3c68f1d" y="279"/>
      </g>
     </g>
     <g id="text_5">
      <!-- 100000 -->
      <g style="fill:#262626;" transform="translate(431.024004 296.373594)scale(0.11 -0.11)">
       <defs>
        <path d="M 2384 0 
L 1822 0 
L 1822 3584 
Q 1619 3391 1289 3197 
Q 959 3003 697 2906 
L 697 3450 
Q 1169 3672 1522 3987 
Q 1875 4303 2022 4600 
L 2384 4600 
L 2384 0 
z
" id="ArialMT-31" transform="scale(0.015625)"/>
       </defs>
       <use xlink:href="#ArialMT-31"/>
       <use x="55.615234" xlink:href="#ArialMT-30"/>
       <use x="111.230469" xlink:href="#ArialMT-30"/>
       <use x="166.845703" xlink:href="#ArialMT-30"/>
       <use x="222.460938" xlink:href="#ArialMT-30"/>
       <use x="278.076172" xlink:href="#ArialMT-30"/>
      </g>
     </g>
    </g>
    <g id="xtick_6">
     <g id="line2d_11">
      <path clip-path="url(#pef78acb7fd)" d="M 541.335637 279 
L 541.335637 7.2 
" style="fill:none;stroke:#cccccc;stroke-linecap:round;"/>
     </g>
     <g id="line2d_12">
      <g>
       <use style="fill:#262626;stroke:#262626;stroke-width:1.25;" x="541.335637" xlink:href="#m1dc3c68f1d" y="279"/>
      </g>
     </g>
     <g id="text_6">
      <!-- 120000 -->
      <g style="fill:#262626;" transform="translate(522.984544 296.373594)scale(0.11 -0.11)">
       <use xlink:href="#ArialMT-31"/>
       <use x="55.615234" xlink:href="#ArialMT-32"/>
       <use x="111.230469" xlink:href="#ArialMT-30"/>
       <use x="166.845703" xlink:href="#ArialMT-30"/>
       <use x="222.460938" xlink:href="#ArialMT-30"/>
       <use x="278.076172" xlink:href="#ArialMT-30"/>
      </g>
     </g>
    </g>
    <g id="text_7">
     <!-- Median household income -->
     <g style="fill:#262626;" transform="translate(261.744531 311.149219)scale(0.12 -0.12)">
      <defs>
       <path d="M 475 0 
L 475 4581 
L 1388 4581 
L 2472 1338 
Q 2622 884 2691 659 
Q 2769 909 2934 1394 
L 4031 4581 
L 4847 4581 
L 4847 0 
L 4263 0 
L 4263 3834 
L 2931 0 
L 2384 0 
L 1059 3900 
L 1059 0 
L 475 0 
z
" id="ArialMT-4d" transform="scale(0.015625)"/>
       <path d="M 2694 1069 
L 3275 997 
Q 3138 488 2766 206 
Q 2394 -75 1816 -75 
Q 1088 -75 661 373 
Q 234 822 234 1631 
Q 234 2469 665 2931 
Q 1097 3394 1784 3394 
Q 2450 3394 2872 2941 
Q 3294 2488 3294 1666 
Q 3294 1616 3291 1516 
L 816 1516 
Q 847 969 1125 678 
Q 1403 388 1819 388 
Q 2128 388 2347 550 
Q 2566 713 2694 1069 
z
M 847 1978 
L 2700 1978 
Q 2663 2397 2488 2606 
Q 2219 2931 1791 2931 
Q 1403 2931 1139 2672 
Q 875 2413 847 1978 
z
" id="ArialMT-65" transform="scale(0.015625)"/>
       <path d="M 2575 0 
L 2575 419 
Q 2259 -75 1647 -75 
Q 1250 -75 917 144 
Q 584 363 401 755 
Q 219 1147 219 1656 
Q 219 2153 384 2558 
Q 550 2963 881 3178 
Q 1213 3394 1622 3394 
Q 1922 3394 2156 3267 
Q 2391 3141 2538 2938 
L 2538 4581 
L 3097 4581 
L 3097 0 
L 2575 0 
z
M 797 1656 
Q 797 1019 1065 703 
Q 1334 388 1700 388 
Q 2069 388 2326 689 
Q 2584 991 2584 1609 
Q 2584 2291 2321 2609 
Q 2059 2928 1675 2928 
Q 1300 2928 1048 2622 
Q 797 2316 797 1656 
z
" id="ArialMT-64" transform="scale(0.015625)"/>
       <path d="M 425 3934 
L 425 4581 
L 988 4581 
L 988 3934 
L 425 3934 
z
M 425 0 
L 425 3319 
L 988 3319 
L 988 0 
L 425 0 
z
" id="ArialMT-69" transform="scale(0.015625)"/>
       <path d="M 2588 409 
Q 2275 144 1986 34 
Q 1697 -75 1366 -75 
Q 819 -75 525 192 
Q 231 459 231 875 
Q 231 1119 342 1320 
Q 453 1522 633 1644 
Q 813 1766 1038 1828 
Q 1203 1872 1538 1913 
Q 2219 1994 2541 2106 
Q 2544 2222 2544 2253 
Q 2544 2597 2384 2738 
Q 2169 2928 1744 2928 
Q 1347 2928 1158 2789 
Q 969 2650 878 2297 
L 328 2372 
Q 403 2725 575 2942 
Q 747 3159 1072 3276 
Q 1397 3394 1825 3394 
Q 2250 3394 2515 3294 
Q 2781 3194 2906 3042 
Q 3031 2891 3081 2659 
Q 3109 2516 3109 2141 
L 3109 1391 
Q 3109 606 3145 398 
Q 3181 191 3288 0 
L 2700 0 
Q 2613 175 2588 409 
z
M 2541 1666 
Q 2234 1541 1622 1453 
Q 1275 1403 1131 1340 
Q 988 1278 909 1158 
Q 831 1038 831 891 
Q 831 666 1001 516 
Q 1172 366 1500 366 
Q 1825 366 2078 508 
Q 2331 650 2450 897 
Q 2541 1088 2541 1459 
L 2541 1666 
z
" id="ArialMT-61" transform="scale(0.015625)"/>
       <path d="M 422 0 
L 422 3319 
L 928 3319 
L 928 2847 
Q 1294 3394 1984 3394 
Q 2284 3394 2536 3286 
Q 2788 3178 2913 3003 
Q 3038 2828 3088 2588 
Q 3119 2431 3119 2041 
L 3119 0 
L 2556 0 
L 2556 2019 
Q 2556 2363 2490 2533 
Q 2425 2703 2258 2804 
Q 2091 2906 1866 2906 
Q 1506 2906 1245 2678 
Q 984 2450 984 1813 
L 984 0 
L 422 0 
z
" id="ArialMT-6e" transform="scale(0.015625)"/>
       <path id="ArialMT-20" transform="scale(0.015625)"/>
       <path d="M 422 0 
L 422 4581 
L 984 4581 
L 984 2938 
Q 1378 3394 1978 3394 
Q 2347 3394 2619 3248 
Q 2891 3103 3008 2847 
Q 3125 2591 3125 2103 
L 3125 0 
L 2563 0 
L 2563 2103 
Q 2563 2525 2380 2717 
Q 2197 2909 1863 2909 
Q 1613 2909 1392 2779 
Q 1172 2650 1078 2428 
Q 984 2206 984 1816 
L 984 0 
L 422 0 
z
" id="ArialMT-68" transform="scale(0.015625)"/>
       <path d="M 213 1659 
Q 213 2581 725 3025 
Q 1153 3394 1769 3394 
Q 2453 3394 2887 2945 
Q 3322 2497 3322 1706 
Q 3322 1066 3130 698 
Q 2938 331 2570 128 
Q 2203 -75 1769 -75 
Q 1072 -75 642 372 
Q 213 819 213 1659 
z
M 791 1659 
Q 791 1022 1069 705 
Q 1347 388 1769 388 
Q 2188 388 2466 706 
Q 2744 1025 2744 1678 
Q 2744 2294 2464 2611 
Q 2184 2928 1769 2928 
Q 1347 2928 1069 2612 
Q 791 2297 791 1659 
z
" id="ArialMT-6f" transform="scale(0.015625)"/>
       <path d="M 2597 0 
L 2597 488 
Q 2209 -75 1544 -75 
Q 1250 -75 995 37 
Q 741 150 617 320 
Q 494 491 444 738 
Q 409 903 409 1263 
L 409 3319 
L 972 3319 
L 972 1478 
Q 972 1038 1006 884 
Q 1059 663 1231 536 
Q 1403 409 1656 409 
Q 1909 409 2131 539 
Q 2353 669 2445 892 
Q 2538 1116 2538 1541 
L 2538 3319 
L 3100 3319 
L 3100 0 
L 2597 0 
z
" id="ArialMT-75" transform="scale(0.015625)"/>
       <path d="M 197 991 
L 753 1078 
Q 800 744 1014 566 
Q 1228 388 1613 388 
Q 2000 388 2187 545 
Q 2375 703 2375 916 
Q 2375 1106 2209 1216 
Q 2094 1291 1634 1406 
Q 1016 1563 777 1677 
Q 538 1791 414 1992 
Q 291 2194 291 2438 
Q 291 2659 392 2848 
Q 494 3038 669 3163 
Q 800 3259 1026 3326 
Q 1253 3394 1513 3394 
Q 1903 3394 2198 3281 
Q 2494 3169 2634 2976 
Q 2775 2784 2828 2463 
L 2278 2388 
Q 2241 2644 2061 2787 
Q 1881 2931 1553 2931 
Q 1166 2931 1000 2803 
Q 834 2675 834 2503 
Q 834 2394 903 2306 
Q 972 2216 1119 2156 
Q 1203 2125 1616 2013 
Q 2213 1853 2448 1751 
Q 2684 1650 2818 1456 
Q 2953 1263 2953 975 
Q 2953 694 2789 445 
Q 2625 197 2315 61 
Q 2006 -75 1616 -75 
Q 969 -75 630 194 
Q 291 463 197 991 
z
" id="ArialMT-73" transform="scale(0.015625)"/>
       <path d="M 409 0 
L 409 4581 
L 972 4581 
L 972 0 
L 409 0 
z
" id="ArialMT-6c" transform="scale(0.015625)"/>
       <path d="M 2588 1216 
L 3141 1144 
Q 3050 572 2676 248 
Q 2303 -75 1759 -75 
Q 1078 -75 664 370 
Q 250 816 250 1647 
Q 250 2184 428 2587 
Q 606 2991 970 3192 
Q 1334 3394 1763 3394 
Q 2303 3394 2647 3120 
Q 2991 2847 3088 2344 
L 2541 2259 
Q 2463 2594 2264 2762 
Q 2066 2931 1784 2931 
Q 1359 2931 1093 2626 
Q 828 2322 828 1663 
Q 828 994 1084 691 
Q 1341 388 1753 388 
Q 2084 388 2306 591 
Q 2528 794 2588 1216 
z
" id="ArialMT-63" transform="scale(0.015625)"/>
       <path d="M 422 0 
L 422 3319 
L 925 3319 
L 925 2853 
Q 1081 3097 1340 3245 
Q 1600 3394 1931 3394 
Q 2300 3394 2536 3241 
Q 2772 3088 2869 2813 
Q 3263 3394 3894 3394 
Q 4388 3394 4653 3120 
Q 4919 2847 4919 2278 
L 4919 0 
L 4359 0 
L 4359 2091 
Q 4359 2428 4304 2576 
Q 4250 2725 4106 2815 
Q 3963 2906 3769 2906 
Q 3419 2906 3187 2673 
Q 2956 2441 2956 1928 
L 2956 0 
L 2394 0 
L 2394 2156 
Q 2394 2531 2256 2718 
Q 2119 2906 1806 2906 
Q 1569 2906 1367 2781 
Q 1166 2656 1075 2415 
Q 984 2175 984 1722 
L 984 0 
L 422 0 
z
" id="ArialMT-6d" transform="scale(0.015625)"/>
      </defs>
      <use xlink:href="#ArialMT-4d"/>
      <use x="83.300781" xlink:href="#ArialMT-65"/>
      <use x="138.916016" xlink:href="#ArialMT-64"/>
      <use x="194.53125" xlink:href="#ArialMT-69"/>
      <use x="216.748047" xlink:href="#ArialMT-61"/>
      <use x="272.363281" xlink:href="#ArialMT-6e"/>
      <use x="327.978516" xlink:href="#ArialMT-20"/>
      <use x="355.761719" xlink:href="#ArialMT-68"/>
      <use x="411.376953" xlink:href="#ArialMT-6f"/>
      <use x="466.992188" xlink:href="#ArialMT-75"/>
      <use x="522.607422" xlink:href="#ArialMT-73"/>
      <use x="572.607422" xlink:href="#ArialMT-65"/>
      <use x="628.222656" xlink:href="#ArialMT-68"/>
      <use x="683.837891" xlink:href="#ArialMT-6f"/>
      <use x="739.453125" xlink:href="#ArialMT-6c"/>
      <use x="761.669922" xlink:href="#ArialMT-64"/>
      <use x="817.285156" xlink:href="#ArialMT-20"/>
      <use x="845.068359" xlink:href="#ArialMT-69"/>
      <use x="867.285156" xlink:href="#ArialMT-6e"/>
      <use x="922.900391" xlink:href="#ArialMT-63"/>
      <use x="972.900391" xlink:href="#ArialMT-6f"/>
      <use x="1028.515625" xlink:href="#ArialMT-6d"/>
      <use x="1111.816406" xlink:href="#ArialMT-65"/>
     </g>
    </g>
   </g>
   <g id="matplotlib.axis_2">
    <g id="ytick_1">
     <g id="line2d_13">
      <defs>
       <path d="M 0 0 
L -6 0 
" id="md66747fbbf" style="stroke:#262626;stroke-width:1.25;"/>
      </defs>
      <g>
       <use style="fill:#262626;stroke:#262626;stroke-width:1.25;" x="52.785156" xlink:href="#md66747fbbf" y="75.15"/>
      </g>
     </g>
     <g id="text_8">
      <!-- gain -->
      <g style="fill:#262626;" transform="translate(22.49 79.086797)scale(0.11 -0.11)">
       <defs>
        <path d="M 319 -275 
L 866 -356 
Q 900 -609 1056 -725 
Q 1266 -881 1628 -881 
Q 2019 -881 2231 -725 
Q 2444 -569 2519 -288 
Q 2563 -116 2559 434 
Q 2191 0 1641 0 
Q 956 0 581 494 
Q 206 988 206 1678 
Q 206 2153 378 2554 
Q 550 2956 876 3175 
Q 1203 3394 1644 3394 
Q 2231 3394 2613 2919 
L 2613 3319 
L 3131 3319 
L 3131 450 
Q 3131 -325 2973 -648 
Q 2816 -972 2473 -1159 
Q 2131 -1347 1631 -1347 
Q 1038 -1347 672 -1080 
Q 306 -813 319 -275 
z
M 784 1719 
Q 784 1066 1043 766 
Q 1303 466 1694 466 
Q 2081 466 2343 764 
Q 2606 1063 2606 1700 
Q 2606 2309 2336 2618 
Q 2066 2928 1684 2928 
Q 1309 2928 1046 2623 
Q 784 2319 784 1719 
z
" id="ArialMT-67" transform="scale(0.015625)"/>
       </defs>
       <use xlink:href="#ArialMT-67"/>
       <use x="55.615234" xlink:href="#ArialMT-61"/>
       <use x="111.230469" xlink:href="#ArialMT-69"/>
       <use x="133.447266" xlink:href="#ArialMT-6e"/>
      </g>
     </g>
    </g>
    <g id="ytick_2">
     <g id="line2d_14">
      <g>
       <use style="fill:#262626;stroke:#262626;stroke-width:1.25;" x="52.785156" xlink:href="#md66747fbbf" y="211.05"/>
      </g>
     </g>
     <g id="text_9">
      <!-- no gain -->
      <g style="fill:#262626;" transform="translate(7.2 214.986797)scale(0.11 -0.11)">
       <use xlink:href="#ArialMT-6e"/>
       <use x="55.615234" xlink:href="#ArialMT-6f"/>
       <use x="111.230469" xlink:href="#ArialMT-20"/>
       <use x="139.013672" xlink:href="#ArialMT-67"/>
       <use x="194.628906" xlink:href="#ArialMT-61"/>
       <use x="250.244141" xlink:href="#ArialMT-69"/>
       <use x="272.460938" xlink:href="#ArialMT-6e"/>
      </g>
     </g>
    </g>
   </g>
   <g id="patch_3">
    <path clip-path="url(#pef78acb7fd)" d="M 194.798438 34.38 
L 194.798438 115.92 
L 269.474994 115.92 
L 269.474994 34.38 
L 194.798438 34.38 
z
" style="fill:#5689dd;stroke:#575757;stroke-linejoin:miter;stroke-width:1.5;"/>
   </g>
   <g id="patch_4">
    <path clip-path="url(#pef78acb7fd)" d="M 164.626185 170.28 
L 164.626185 251.82 
L 224.544224 251.82 
L 224.544224 170.28 
L 164.626185 170.28 
z
" style="fill:#d78a4b;stroke:#575757;stroke-linejoin:miter;stroke-width:1.5;"/>
   </g>
   <g id="line2d_15">
    <path clip-path="url(#pef78acb7fd)" d="M 194.798438 75.15 
L 92.62798 75.15 
" style="fill:none;stroke:#575757;stroke-linecap:round;stroke-width:1.5;"/>
   </g>
   <g id="line2d_16">
    <path clip-path="url(#pef78acb7fd)" d="M 269.474994 75.15 
L 381.287515 75.15 
" style="fill:none;stroke:#575757;stroke-linecap:round;stroke-width:1.5;"/>
   </g>
   <g id="line2d_17">
    <path clip-path="url(#pef78acb7fd)" d="M 92.62798 54.765 
L 92.62798 95.535 
" style="fill:none;stroke:#575757;stroke-linecap:round;stroke-width:1.5;"/>
   </g>
   <g id="line2d_18">
    <path clip-path="url(#pef78acb7fd)" d="M 381.287515 54.765 
L 381.287515 95.535 
" style="fill:none;stroke:#575757;stroke-linecap:round;stroke-width:1.5;"/>
   </g>
   <g id="line2d_19">
    <defs>
     <path d="M -0 3.535534 
L 2.12132 0 
L -0 -3.535534 
L -2.12132 -0 
z
" id="m09a75fb1ec" style="stroke:#575757;stroke-linejoin:miter;"/>
    </defs>
    <g clip-path="url(#pef78acb7fd)">
     <use style="fill:#575757;stroke:#575757;stroke-linejoin:miter;" x="383.821027" xlink:href="#m09a75fb1ec" y="75.15"/>
     <use style="fill:#575757;stroke:#575757;stroke-linejoin:miter;" x="396.295475" xlink:href="#m09a75fb1ec" y="75.15"/>
     <use style="fill:#575757;stroke:#575757;stroke-linejoin:miter;" x="470.999619" xlink:href="#m09a75fb1ec" y="75.15"/>
     <use style="fill:#575757;stroke:#575757;stroke-linejoin:miter;" x="432.201467" xlink:href="#m09a75fb1ec" y="75.15"/>
     <use style="fill:#575757;stroke:#575757;stroke-linejoin:miter;" x="475.432117" xlink:href="#m09a75fb1ec" y="75.15"/>
     <use style="fill:#575757;stroke:#575757;stroke-linejoin:miter;" x="480.462358" xlink:href="#m09a75fb1ec" y="75.15"/>
     <use style="fill:#575757;stroke:#575757;stroke-linejoin:miter;" x="383.342833" xlink:href="#m09a75fb1ec" y="75.15"/>
     <use style="fill:#575757;stroke:#575757;stroke-linejoin:miter;" x="500.661491" xlink:href="#m09a75fb1ec" y="75.15"/>
     <use style="fill:#575757;stroke:#575757;stroke-linejoin:miter;" x="416.494607" xlink:href="#m09a75fb1ec" y="75.15"/>
     <use style="fill:#575757;stroke:#575757;stroke-linejoin:miter;" x="402.351076" xlink:href="#m09a75fb1ec" y="75.15"/>
     <use style="fill:#575757;stroke:#575757;stroke-linejoin:miter;" x="433.029112" xlink:href="#m09a75fb1ec" y="75.15"/>
     <use style="fill:#575757;stroke:#575757;stroke-linejoin:miter;" x="402.751104" xlink:href="#m09a75fb1ec" y="75.15"/>
     <use style="fill:#575757;stroke:#575757;stroke-linejoin:miter;" x="406.07088" xlink:href="#m09a75fb1ec" y="75.15"/>
     <use style="fill:#575757;stroke:#575757;stroke-linejoin:miter;" x="413.680615" xlink:href="#m09a75fb1ec" y="75.15"/>
     <use style="fill:#575757;stroke:#575757;stroke-linejoin:miter;" x="424.095146" xlink:href="#m09a75fb1ec" y="75.15"/>
     <use style="fill:#575757;stroke:#575757;stroke-linejoin:miter;" x="450.984407" xlink:href="#m09a75fb1ec" y="75.15"/>
     <use style="fill:#575757;stroke:#575757;stroke-linejoin:miter;" x="405.739822" xlink:href="#m09a75fb1ec" y="75.15"/>
     <use style="fill:#575757;stroke:#575757;stroke-linejoin:miter;" x="421.662789" xlink:href="#m09a75fb1ec" y="75.15"/>
     <use style="fill:#575757;stroke:#575757;stroke-linejoin:miter;" x="396.506984" xlink:href="#m09a75fb1ec" y="75.15"/>
     <use style="fill:#575757;stroke:#575757;stroke-linejoin:miter;" x="520.993966" xlink:href="#m09a75fb1ec" y="75.15"/>
     <use style="fill:#575757;stroke:#575757;stroke-linejoin:miter;" x="463.987628" xlink:href="#m09a75fb1ec" y="75.15"/>
     <use style="fill:#575757;stroke:#575757;stroke-linejoin:miter;" x="399.904926" xlink:href="#m09a75fb1ec" y="75.15"/>
     <use style="fill:#575757;stroke:#575757;stroke-linejoin:miter;" x="387.338518" xlink:href="#m09a75fb1ec" y="75.15"/>
     <use style="fill:#575757;stroke:#575757;stroke-linejoin:miter;" x="416.62795" xlink:href="#m09a75fb1ec" y="75.15"/>
     <use style="fill:#575757;stroke:#575757;stroke-linejoin:miter;" x="412.324197" xlink:href="#m09a75fb1ec" y="75.15"/>
     <use style="fill:#575757;stroke:#575757;stroke-linejoin:miter;" x="429.456445" xlink:href="#m09a75fb1ec" y="75.15"/>
     <use style="fill:#575757;stroke:#575757;stroke-linejoin:miter;" x="417.625722" xlink:href="#m09a75fb1ec" y="75.15"/>
     <use style="fill:#575757;stroke:#575757;stroke-linejoin:miter;" x="417.883211" xlink:href="#m09a75fb1ec" y="75.15"/>
     <use style="fill:#575757;stroke:#575757;stroke-linejoin:miter;" x="401.546421" xlink:href="#m09a75fb1ec" y="75.15"/>
     <use style="fill:#575757;stroke:#575757;stroke-linejoin:miter;" x="383.250872" xlink:href="#m09a75fb1ec" y="75.15"/>
     <use style="fill:#575757;stroke:#575757;stroke-linejoin:miter;" x="410.622927" xlink:href="#m09a75fb1ec" y="75.15"/>
     <use style="fill:#575757;stroke:#575757;stroke-linejoin:miter;" x="481.71762" xlink:href="#m09a75fb1ec" y="75.15"/>
     <use style="fill:#575757;stroke:#575757;stroke-linejoin:miter;" x="477.174769" xlink:href="#m09a75fb1ec" y="75.15"/>
     <use style="fill:#575757;stroke:#575757;stroke-linejoin:miter;" x="496.228993" xlink:href="#m09a75fb1ec" y="75.15"/>
     <use style="fill:#575757;stroke:#575757;stroke-linejoin:miter;" x="475.786165" xlink:href="#m09a75fb1ec" y="75.15"/>
     <use style="fill:#575757;stroke:#575757;stroke-linejoin:miter;" x="396.824248" xlink:href="#m09a75fb1ec" y="75.15"/>
     <use style="fill:#575757;stroke:#575757;stroke-linejoin:miter;" x="403.247691" xlink:href="#m09a75fb1ec" y="75.15"/>
     <use style="fill:#575757;stroke:#575757;stroke-linejoin:miter;" x="410.374633" xlink:href="#m09a75fb1ec" y="75.15"/>
     <use style="fill:#575757;stroke:#575757;stroke-linejoin:miter;" x="402.815477" xlink:href="#m09a75fb1ec" y="75.15"/>
     <use style="fill:#575757;stroke:#575757;stroke-linejoin:miter;" x="450.428046" xlink:href="#m09a75fb1ec" y="75.15"/>
     <use style="fill:#575757;stroke:#575757;stroke-linejoin:miter;" x="414.508259" xlink:href="#m09a75fb1ec" y="75.15"/>
     <use style="fill:#575757;stroke:#575757;stroke-linejoin:miter;" x="465.665907" xlink:href="#m09a75fb1ec" y="75.15"/>
     <use style="fill:#575757;stroke:#575757;stroke-linejoin:miter;" x="403.964984" xlink:href="#m09a75fb1ec" y="75.15"/>
     <use style="fill:#575757;stroke:#575757;stroke-linejoin:miter;" x="420.154637" xlink:href="#m09a75fb1ec" y="75.15"/>
     <use style="fill:#575757;stroke:#575757;stroke-linejoin:miter;" x="418.425778" xlink:href="#m09a75fb1ec" y="75.15"/>
     <use style="fill:#575757;stroke:#575757;stroke-linejoin:miter;" x="385.32918" xlink:href="#m09a75fb1ec" y="75.15"/>
     <use style="fill:#575757;stroke:#575757;stroke-linejoin:miter;" x="426.164258" xlink:href="#m09a75fb1ec" y="75.15"/>
     <use style="fill:#575757;stroke:#575757;stroke-linejoin:miter;" x="505.185949" xlink:href="#m09a75fb1ec" y="75.15"/>
     <use style="fill:#575757;stroke:#575757;stroke-linejoin:miter;" x="529.90954" xlink:href="#m09a75fb1ec" y="75.15"/>
     <use style="fill:#575757;stroke:#575757;stroke-linejoin:miter;" x="425.350407" xlink:href="#m09a75fb1ec" y="75.15"/>
     <use style="fill:#575757;stroke:#575757;stroke-linejoin:miter;" x="388.000634" xlink:href="#m09a75fb1ec" y="75.15"/>
     <use style="fill:#575757;stroke:#575757;stroke-linejoin:miter;" x="585.42152" xlink:href="#m09a75fb1ec" y="75.15"/>
     <use style="fill:#575757;stroke:#575757;stroke-linejoin:miter;" x="454.244409" xlink:href="#m09a75fb1ec" y="75.15"/>
     <use style="fill:#575757;stroke:#575757;stroke-linejoin:miter;" x="463.192169" xlink:href="#m09a75fb1ec" y="75.15"/>
     <use style="fill:#575757;stroke:#575757;stroke-linejoin:miter;" x="388.593779" xlink:href="#m09a75fb1ec" y="75.15"/>
     <use style="fill:#575757;stroke:#575757;stroke-linejoin:miter;" x="418.890179" xlink:href="#m09a75fb1ec" y="75.15"/>
     <use style="fill:#575757;stroke:#575757;stroke-linejoin:miter;" x="480.963543" xlink:href="#m09a75fb1ec" y="75.15"/>
     <use style="fill:#575757;stroke:#575757;stroke-linejoin:miter;" x="517.402907" xlink:href="#m09a75fb1ec" y="75.15"/>
    </g>
   </g>
   <g id="line2d_20">
    <path clip-path="url(#pef78acb7fd)" d="M 164.626185 211.05 
L 78.148793 211.05 
" style="fill:none;stroke:#575757;stroke-linecap:round;stroke-width:1.5;"/>
   </g>
   <g id="line2d_21">
    <path clip-path="url(#pef78acb7fd)" d="M 224.544224 211.05 
L 314.377026 211.05 
" style="fill:none;stroke:#575757;stroke-linecap:round;stroke-width:1.5;"/>
   </g>
   <g id="line2d_22">
    <path clip-path="url(#pef78acb7fd)" d="M 78.148793 190.665 
L 78.148793 231.435 
" style="fill:none;stroke:#575757;stroke-linecap:round;stroke-width:1.5;"/>
   </g>
   <g id="line2d_23">
    <path clip-path="url(#pef78acb7fd)" d="M 314.377026 190.665 
L 314.377026 231.435 
" style="fill:none;stroke:#575757;stroke-linecap:round;stroke-width:1.5;"/>
   </g>
   <g id="line2d_24">
    <g clip-path="url(#pef78acb7fd)">
     <use style="fill:#575757;stroke:#575757;stroke-linejoin:miter;" x="367.856678" xlink:href="#m09a75fb1ec" y="211.05"/>
     <use style="fill:#575757;stroke:#575757;stroke-linejoin:miter;" x="355.115545" xlink:href="#m09a75fb1ec" y="211.05"/>
     <use style="fill:#575757;stroke:#575757;stroke-linejoin:miter;" x="340.171957" xlink:href="#m09a75fb1ec" y="211.05"/>
     <use style="fill:#575757;stroke:#575757;stroke-linejoin:miter;" x="406.83875" xlink:href="#m09a75fb1ec" y="211.05"/>
     <use style="fill:#575757;stroke:#575757;stroke-linejoin:miter;" x="330.594267" xlink:href="#m09a75fb1ec" y="211.05"/>
     <use style="fill:#575757;stroke:#575757;stroke-linejoin:miter;" x="314.95178" xlink:href="#m09a75fb1ec" y="211.05"/>
     <use style="fill:#575757;stroke:#575757;stroke-linejoin:miter;" x="385.090083" xlink:href="#m09a75fb1ec" y="211.05"/>
     <use style="fill:#575757;stroke:#575757;stroke-linejoin:miter;" x="341.036387" xlink:href="#m09a75fb1ec" y="211.05"/>
     <use style="fill:#575757;stroke:#575757;stroke-linejoin:miter;" x="365.107058" xlink:href="#m09a75fb1ec" y="211.05"/>
     <use style="fill:#575757;stroke:#575757;stroke-linejoin:miter;" x="363.44717" xlink:href="#m09a75fb1ec" y="211.05"/>
     <use style="fill:#575757;stroke:#575757;stroke-linejoin:miter;" x="377.838994" xlink:href="#m09a75fb1ec" y="211.05"/>
     <use style="fill:#575757;stroke:#575757;stroke-linejoin:miter;" x="369.429203" xlink:href="#m09a75fb1ec" y="211.05"/>
     <use style="fill:#575757;stroke:#575757;stroke-linejoin:miter;" x="356.793825" xlink:href="#m09a75fb1ec" y="211.05"/>
     <use style="fill:#575757;stroke:#575757;stroke-linejoin:miter;" x="370.468357" xlink:href="#m09a75fb1ec" y="211.05"/>
     <use style="fill:#575757;stroke:#575757;stroke-linejoin:miter;" x="499.810856" xlink:href="#m09a75fb1ec" y="211.05"/>
     <use style="fill:#575757;stroke:#575757;stroke-linejoin:miter;" x="411.703463" xlink:href="#m09a75fb1ec" y="211.05"/>
     <use style="fill:#575757;stroke:#575757;stroke-linejoin:miter;" x="399.891132" xlink:href="#m09a75fb1ec" y="211.05"/>
     <use style="fill:#575757;stroke:#575757;stroke-linejoin:miter;" x="336.723437" xlink:href="#m09a75fb1ec" y="211.05"/>
     <use style="fill:#575757;stroke:#575757;stroke-linejoin:miter;" x="337.11427" xlink:href="#m09a75fb1ec" y="211.05"/>
     <use style="fill:#575757;stroke:#575757;stroke-linejoin:miter;" x="447.572671" xlink:href="#m09a75fb1ec" y="211.05"/>
     <use style="fill:#575757;stroke:#575757;stroke-linejoin:miter;" x="416.444029" xlink:href="#m09a75fb1ec" y="211.05"/>
     <use style="fill:#575757;stroke:#575757;stroke-linejoin:miter;" x="319.0992" xlink:href="#m09a75fb1ec" y="211.05"/>
     <use style="fill:#575757;stroke:#575757;stroke-linejoin:miter;" x="358.964094" xlink:href="#m09a75fb1ec" y="211.05"/>
     <use style="fill:#575757;stroke:#575757;stroke-linejoin:miter;" x="332.723154" xlink:href="#m09a75fb1ec" y="211.05"/>
     <use style="fill:#575757;stroke:#575757;stroke-linejoin:miter;" x="347.583977" xlink:href="#m09a75fb1ec" y="211.05"/>
     <use style="fill:#575757;stroke:#575757;stroke-linejoin:miter;" x="380.404693" xlink:href="#m09a75fb1ec" y="211.05"/>
     <use style="fill:#575757;stroke:#575757;stroke-linejoin:miter;" x="395.706927" xlink:href="#m09a75fb1ec" y="211.05"/>
     <use style="fill:#575757;stroke:#575757;stroke-linejoin:miter;" x="358.233007" xlink:href="#m09a75fb1ec" y="211.05"/>
     <use style="fill:#575757;stroke:#575757;stroke-linejoin:miter;" x="379.995469" xlink:href="#m09a75fb1ec" y="211.05"/>
     <use style="fill:#575757;stroke:#575757;stroke-linejoin:miter;" x="316.413952" xlink:href="#m09a75fb1ec" y="211.05"/>
    </g>
   </g>
   <g id="line2d_25">
    <path clip-path="url(#pef78acb7fd)" d="M 229.037646 34.38 
L 229.037646 115.92 
" style="fill:none;stroke:#575757;stroke-linecap:round;stroke-width:1.5;"/>
   </g>
   <g id="line2d_26">
    <path clip-path="url(#pef78acb7fd)" d="M 195.757126 170.28 
L 195.757126 251.82 
" style="fill:none;stroke:#575757;stroke-linecap:round;stroke-width:1.5;"/>
   </g>
   <g id="patch_5">
    <path d="M 81.53294 279 
L 541.335637 279 
" style="fill:none;stroke:#262626;stroke-linecap:square;stroke-linejoin:miter;stroke-width:1.25;"/>
   </g>
  </g>
 </g>
 <defs>
  <clipPath id="pef78acb7fd">
   <rect height="271.8" width="558" x="52.785156" y="7.2"/>
  </clipPath>
 </defs>
</svg>
